<svg version="1.1" viewBox="0.0 0.0 756.8110236220473 362.40157480314963" fill="none" stroke="none" stroke-linecap="square" stroke-miterlimit="10" xmlns:xlink="http://www.w3.org/1999/xlink" xmlns="http://www.w3.org/2000/svg"><clipPath id="p.0"><path d="m0 0l756.81104 0l0 362.40158l-756.81104 0l0 -362.40158z" clip-rule="nonzero"/></clipPath><g clip-path="url(#p.0)"><path fill="#000000" fill-opacity="0.0" d="m0 0l756.81104 0l0 362.40158l-756.81104 0z" fill-rule="evenodd"/><path fill="#cfe2f3" d="m9.401575 9.406824l303.59055 0l0 344.97638l-303.59055 0z" fill-rule="evenodd"/><path stroke="#000000" stroke-width="1.0" stroke-linejoin="round" stroke-linecap="butt" d="m9.401575 9.406824l303.59055 0l0 344.97638l-303.59055 0z" fill-rule="evenodd"/><path fill="#cfe2f3" d="m22.834646 21.671917l276.7244 0l0 54.96063l-276.7244 0z" fill-rule="evenodd"/><path stroke="#000000" stroke-width="1.0" stroke-linejoin="round" stroke-linecap="butt" d="m22.834646 21.671917l276.7244 0l0 54.96063l-276.7244 0z" fill-rule="evenodd"/><path fill="#000000" d="m40.897144 48.494106q0.140625 5.640625 -4.828125 8.765625l-1.265625 -1.40625q4.375 -2.375 4.375 -6.6875l0 -3.1875l1.5625 0q0.671875 0.078125 0.15625 0.515625l0 1.9375q2.671875 -2.015625 4.078125 -3.9375l-12.09375 0.4375l-0.15625 -1.703125l13.515625 -0.375l0.515625 -0.140625l1.109375 1.328125q0.21875 0.296875 -0.375 0.234375q-2.21875 2.890625 -5.34375 5.40625l-1.25 -1.1875zm22.257812 -5.1875q0.59375 0 0.9687538 -0.375q0.375 -0.375 0.375 -0.96875q0 -0.59375 -0.375 -0.953125q-0.3750038 -0.375 -0.9687538 -0.375q-0.59375 0 -0.96875 0.375q-0.359375 0.359375 -0.359375 0.953125q0 0.59375 0.359375 0.96875q0.375 0.375 0.96875 0.375zm0 0.734375q-0.890625 0 -1.484375 -0.59375q-0.59375 -0.59375 -0.59375 -1.484375q0 -0.890625 0.59375 -1.484375q0.59375 -0.59375 1.484375 -0.59375q0.8906288 0 1.4843788 0.59375q0.59375 0.59375 0.59375 1.484375q0 0.890625 -0.59375 1.484375q-0.59375 0.59375 -1.4843788 0.59375zm-13.28125 0.96875l0 -1.625l10.984375 0l1.921875 1.40625q-0.359375 8.984375 -10.15625 11.734375l-1.34375 -1.640625q9.28125 -2.15625 9.71875 -9.875l-11.125 0zm27.304691 4.53125q0 5.5625 -5.1875 8.015625l-1.484375 -1.265625q4.890625 -2.21875 4.96875 -6.828125l0 -7.421875l1.5625 0q0.734375 0.15625 0.140625 0.59375l0 6.90625zm-7.640625 1.625l-1.703125 0l0 -8.375l1.625 0q0.75 0.0625 0.078125 0.59375l0 7.78125zm11.207031 -1.1875q3.265625 -3.328125 4.15625 -8.453125l1.859375 0.4375q0.59375 0.15625 -0.15625 0.59375q-0.4375 1.640625 -1.109375 3.203125l10.984375 0l0 1.625l-4.296875 0q-0.671875 5.796875 -5.578125 10.03125l-1.703125 -0.96875q5.125 -4.09375 5.421875 -9.0625l-5.640625 0q-0.96875 1.9375 -2.453125 3.421875l-1.484375 -0.828125zm17.664062 0l0 -1.625l16.546875 0l0 1.625l-16.546875 0zm19.898438 4.90625q8.078125 -1.78125 12.171867 -8.390625l1.328125 1.34375q-3.78125 6.078125 -11.718742 8.609375q-0.234375 0.890625 -0.75 0.078125l-1.03125 -1.640625zm-0.53125 -8.984375q1.859375 0.96875 3.796875 2.375l-1.1875 1.5625q-2.234375 -1.640625 -3.71875 -2.375l1.109375 -1.5625zm2.078125 -4.375q2.015625 1.109375 3.796875 2.375l-1.046875 1.5625q-2.0 -1.421875 -3.703125 -2.375l0.953125 -1.5625zm13.882805 14.546875l0 -1.40625l7.578125 0l0 -3.125l-7.125 0l0 -1.40625l7.125 0l0 -2.96875l-7.578125 0l0 -1.40625l9.0625 0l0 11.125l-1.484375 0l0 -0.8125l-7.578125 0zm26.496094 -8.609375q-3.9375 8.15625 -13.203125 8.609375q-0.375 0.96875 -0.75 0.15625l-0.59375 -1.9375q9.65625 -0.21875 12.984375 -7.9375l1.5625 1.109375zm-10.46875 0q-2.0 -1.859375 -3.78125 -3.046875l1.265625 -1.5625q1.5625 0.96875 3.9375 3.203125l-1.421875 1.40625zm24.871094 -1.265625l4.375 0l0 1.640625l-4.296875 0l0 1.40625q0 5.5625 -5.875 7.9375l-1.1875 -1.328125q5.34375 -1.78125 5.34375 -6.46875l0 -1.546875l-4.890625 0l0.078125 3.78125l-1.640625 0l-0.078125 -3.78125l-4.15625 0l0 -1.640625l4.15625 0l-0.0625 -3.9375l1.546875 0q0.75 0.078125 0.078125 0.75l0.078125 3.1875l4.828125 0l0 -4.53125l1.625 0q0.75 0.078125 0.078125 0.75l0 3.78125zm6.453125 3.78125l0 -1.625l16.546875 0l0 1.625l-16.546875 0zm30.210938 -3.109375q0.375 0.671875 -0.671875 0.21875q-4.15625 1.109375 -8.75 1.703125l0 4.828125q0 0.96875 0.953125 0.96875l8.546875 0l-0.15625 1.640625l-8.6875 0q-2.375 0 -2.375 -1.9375l0 -11.65625l1.484375 0q0.828125 0.15625 0.234375 0.59375l0 3.78125q5.046875 -0.59375 8.828125 -1.84375l0.59375 1.703125zm-0.890625 -2.453125q-1.1875 -1.484375 -2.296875 -2.59375l1.03125 -0.8125q1.046875 0.953125 2.296875 2.59375l-1.03125 0.8125zm2.15625 -1.03125q-1.34375 -1.5625 -2.3125 -2.53125l0.890625 -0.8125q1.125 1.03125 2.375 2.515625l-0.953125 0.828125zm12.246094 5.9375q3.1875 2.4375 6.296875 5.640625l-1.484375 1.265625q-3.109375 -3.28125 -6.0 -5.5q-2.90625 3.109375 -6.609375 5.5625l-1.40625 -1.265625q7.859375 -5.109375 10.09375 -10.234375l-8.09375 0.515625l-0.21875 -1.78125l8.609375 -0.375l0.890625 -0.21875l1.1875 1.1875q0.515625 0.515625 -0.296875 0.671875q-1.421875 2.453125 -2.96875 4.53125z" fill-rule="nonzero"/><path fill="#d9ead3" d="m446.67715 9.406824l303.59055 0l0 344.97638l-303.59055 0z" fill-rule="evenodd"/><path stroke="#000000" stroke-width="1.0" stroke-linejoin="round" stroke-linecap="butt" d="m446.67715 9.406824l303.59055 0l0 344.97638l-303.59055 0z" fill-rule="evenodd"/><path fill="#fce5cd" d="m343.53543 166.46194l54.86615 0l0 -15.433075l30.86615 30.86615l-30.86615 30.866135l0 -15.433075l-54.86615 0z" fill-rule="evenodd"/><path stroke="#000000" stroke-width="1.0" stroke-linejoin="round" stroke-linecap="butt" d="m343.53543 166.46194l54.86615 0l0 -15.433075l30.86615 30.86615l-30.86615 30.866135l0 -15.433075l-54.86615 0z" fill-rule="evenodd"/><path fill="#000000" d="m354.23856 179.9869l0 -1.421875l3.796875 0l0 -2.4375l-3.125 0.21875l-0.375 -1.34375q4.15625 -0.21875 7.359375 -0.890625l0.734375 1.265625q0.078125 0.515625 -0.4375 0.21875l-2.671875 0.296875l0 2.671875l4.0 0l0 1.421875l-4.0 0l0 1.625q2.296875 1.046875 3.703125 2.53125l-1.109375 1.40625q-1.109375 -1.265625 -2.59375 -2.296875l0 7.046875l-1.484375 0l0 -7.203125q-1.265625 2.234375 -3.34375 3.9375l-0.890625 -1.5625q2.96875 -2.21875 4.078125 -5.484375l-3.640625 0zm15.21875 -5.640625q0.59375 0.0625 0.078125 0.4375l0 14.1875q0 1.1875 -1.1875 1.1875l-1.703125 0l-0.296875 -1.421875l1.484375 0q0.21875 0 0.21875 -0.21875l0 -14.171875l1.40625 0zm-3.78125 1.84375q0.59375 0.078125 0.078125 0.453125l0 9.9375l-1.484375 0l0 -10.390625l1.40625 0zm21.21875 8.015625l-4.8125 0l0 5.65625l-1.484375 0l0 -5.65625l-4.453125 0q-0.15625 3.859375 -2.3125 6.171875l-1.1875 -1.1875q2.015625 -2.234375 2.015625 -5.203125l0 -9.5l13.71875 0l0 14.171875q0 1.203125 -1.1875 1.203125l-2.078125 0l-0.359375 -1.640625l1.84375 0q0.296875 0 0.296875 -0.296875l0 -3.71875zm-10.75 -4.15625l0 2.75l4.453125 0l0 -2.75l-4.453125 0zm0 -4.15625l0 2.75l4.453125 0l0 -2.75l-4.453125 0zm5.9375 4.15625l0 2.75l4.8125 0l0 -2.75l-4.8125 0zm0 -4.15625l0 2.75l4.8125 0l0 -2.75l-4.8125 0z" fill-rule="nonzero"/><path fill="#d9ead3" d="m460.11023 21.671917l276.72443 0l0 54.96063l-276.72443 0z" fill-rule="evenodd"/><path stroke="#000000" stroke-width="1.0" stroke-linejoin="round" stroke-linecap="butt" d="m460.11023 21.671917l276.72443 0l0 54.96063l-276.72443 0z" fill-rule="evenodd"/><path fill="#000000" d="m474.37585 41.369106q-0.296875 1.9375 -1.03125 4.234375q0.671875 0.078125 0.21875 0.515625l0 11.515625l-1.484375 0l0 -9.203125q-0.515625 0.8125 -0.96875 1.328125l-1.1875 -0.890625q2.53125 -3.046875 2.96875 -8.234375l1.71875 0.375q0.296875 0.296875 -0.234375 0.359375zm7.28125 2.75l0 1.40625l3.640625 0l0 8.765625l-6.90625 0l0 -8.765625l1.78125 0l0 -1.40625l-5.34375 0l0 -1.40625l5.34375 0l0 -2.078125l1.40625 0q0.59375 0.078125 0.078125 0.4375l0 1.640625l4.828125 0l0 1.40625l-4.828125 0zm-2.0 2.59375l0 1.34375l4.375 0l0 -1.34375l-4.375 0zm0 2.53125l0 1.265625l4.375 0l0 -1.265625l-4.375 0zm0 2.453125l0 1.40625l4.375 0l0 -1.40625l-4.375 0zm-4.3125 5.9375l0 -11.875l1.40625 0q0.59375 0.0625 0.078125 0.4375l0 9.359375l10.25 0l0 1.40625l-10.25 0l0 0.671875l-1.484375 0zm13.21875 -3.5q4.75 -3.03125 7.421875 -7.265625l-6.984375 0l0 -1.640625l7.875 0l0 -4.078125l1.546875 0q0.671875 0.15625 0.15625 0.59375l0 3.484375l6.234375 0l0 1.640625l-6.234375 0l0 8.6875q0 1.78125 -1.703125 1.78125l-2.078125 0l-0.296875 -1.640625l1.484375 0q0.890625 -0.140625 0.890625 -0.96875l0 -6.234375q-2.828125 4.15625 -6.828125 6.984375l-1.484375 -1.34375zm18.253906 -9.125l0 -1.625l11.203125 0l1.109375 -0.234375l0.828125 0.75q-0.296875 9.796875 -10.390625 12.625l-1.34375 -1.640625q9.28125 -2.078125 9.71875 -9.875l-11.125 0zm11.65625 -1.859375q-0.96875 -1.03125 -1.9375 -1.84375l0.890625 -0.890625q1.046875 0.8125 2.0 1.921875l-0.953125 0.8125zm2.671875 -0.21875q-1.1875 -1.328125 -2.234375 -2.21875l0.890625 -0.75q1.1875 0.890625 2.234375 2.15625l-0.890625 0.8125zm17.507812 4.90625q-3.78125 6.078125 -11.71875 8.609375q-0.234375 0.890625 -0.75 0.078125l-1.03125 -1.640625q8.078125 -1.78125 12.171875 -8.390625l1.328125 1.34375zm-11.421875 2.0q-2.234375 -1.640625 -3.71875 -2.375l1.109375 -1.5625q1.859375 0.96875 3.796875 2.375l-1.1875 1.5625zm2.21875 -4.375q-2.0 -1.421875 -3.703125 -2.375l0.953125 -1.5625q2.015625 1.109375 3.796875 2.375l-1.046875 1.5625zm6.15625 -5.046875q1.265625 0.953125 2.53125 2.296875l-0.96875 0.96875q-1.328125 -1.484375 -2.515625 -2.375l0.953125 -0.890625zm-1.78125 1.25q1.265625 1.046875 2.53125 2.375l-0.96875 0.890625q-1.265625 -1.328125 -2.59375 -2.4375l1.03125 -0.828125zm13.4453125 6.390625l0 5.859375l5.40625 0l0 1.40625l-12.09375 0l0 -1.40625l5.203125 0l0 -5.859375l-4.15625 0l0 -1.40625l9.796875 0l0 1.40625l-4.15625 0zm20.335938 -2.15625q-1.421875 8.09375 -9.28125 11.578125l-1.34375 -1.40625q7.28125 -2.96875 8.765625 -10.25l-5.9375 0q-1.703125 2.828125 -3.5625 4.53125l-1.484375 -0.96875q3.859375 -3.484375 4.96875 -8.15625l1.703125 0.59375q0.453125 0.21875 -0.140625 0.4375q-0.296875 0.96875 -0.8125 1.9375l5.34375 0l0.65625 -0.375l1.34375 1.34375q0.515625 0.515625 -0.21875 0.734375zm5.5546875 1.265625q3.640625 1.03125 7.359375 2.8125l-0.890625 1.71875q-3.9375 -2.015625 -6.46875 -2.671875l0 7.71875l-1.703125 0l0 -14.84375l1.484375 0q0.890625 0.0625 0.21875 0.59375l0 4.671875z" fill-rule="nonzero"/><path fill="#cfe2f3" d="m22.834646 87.40157l276.7244 0l0 54.960625l-276.7244 0z" fill-rule="evenodd"/><path stroke="#000000" stroke-width="1.0" stroke-linejoin="round" stroke-linecap="butt" d="m22.834646 87.40157l276.7244 0l0 54.960625l-276.7244 0z" fill-rule="evenodd"/><path fill="#000000" d="m34.209644 120.61439q9.28125 -2.15625 9.71875 -9.875l-11.125 0l0 -1.625l11.28125 0l1.03125 -0.234375l0.828125 0.75q-0.296875 9.875 -10.390625 12.625l-1.34375 -1.640625zm19.148438 -6.609375l1.484375 0.15625q0.515625 0.140625 0 0.4375l0 1.40625q2.375 -1.78125 3.421875 -3.109375l-10.25 0.296875l-0.140625 -1.34375l11.203125 -0.296875l0.59375 -0.21875l0.890625 1.109375q0.21875 0.453125 -0.296875 0.375q-1.703125 2.0 -4.234375 4.234375l-1.1875 -0.96875q0.078125 4.234375 -3.859375 7.0625l-1.328125 -1.125q3.703125 -2.21875 3.703125 -5.78125l0 -2.234375zm21.976566 -2.375q-1.421875 8.09375 -9.28125 11.578125l-1.34375 -1.40625q7.28125 -2.96875 8.765625 -10.25l-5.9375 0q-1.703125 2.828125 -3.5625038 4.53125l-1.484375 -0.96875q3.8593788 -3.484375 4.968754 -8.15625l1.703125 0.59375q0.453125 0.21875 -0.140625 0.4375q-0.296875 0.96875 -0.8125 1.9375l5.34375 0l0.65625 -0.375l1.34375 1.34375q0.515625 0.515625 -0.21875 0.734375zm5.5546875 1.265625q3.640625 1.03125 7.359375 2.8125l-0.890625 1.71875q-3.9375 -2.015625 -6.46875 -2.671875l0 7.71875l-1.703125 0l0 -14.84375l1.484375 0q0.890625 0.0625 0.21875 0.59375l0 4.671875zm19.742188 2.375q0 5.5625 -5.1875 8.015625l-1.484375 -1.265625q4.890625 -2.21875 4.96875 -6.828125l0 -7.421875l1.5625 0q0.734375 0.15625 0.140625 0.59375l0 6.90625zm-7.640625 1.625l-1.703125 0l0 -8.375l1.625 0q0.75 0.0625 0.078125 0.59375l0 7.78125z" fill-rule="nonzero"/><path fill="#cfe2f3" d="m22.834646 153.13124l276.7244 0l0 54.960617l-276.7244 0z" fill-rule="evenodd"/><path stroke="#000000" stroke-width="1.0" stroke-linejoin="round" stroke-linecap="butt" d="m22.834646 153.13124l276.7244 0l0 54.960617l-276.7244 0z" fill-rule="evenodd"/><path fill="#000000" d="m43.334644 181.0003q0 5.5625 -5.1875 8.015625l-1.484375 -1.265625q4.890625 -2.21875 4.96875 -6.828125l0 -7.421875l1.5625 0q0.734375 0.15625 0.140625 0.59375l0 6.90625zm-7.640625 1.625l-1.703125 0l0 -8.375l1.625 0q0.75 0.0625 0.078125 0.59375l0 7.78125zm25.753906 -7.5625q0.59375 0 0.96875 -0.375q0.375 -0.375 0.375 -0.96875q0 -0.59375 -0.375 -0.953125q-0.375 -0.375 -0.96875 -0.375q-0.59375 0 -0.96875 0.375q-0.359375 0.359375 -0.359375 0.953125q0 0.59375 0.359375 0.96875q0.375 0.375 0.96875 0.375zm0 0.734375q-0.890625 0 -1.484375 -0.59375q-0.59375 -0.59375 -0.59375 -1.484375q0 -0.890625 0.59375 -1.484375q0.59375 -0.59375 1.484375 -0.59375q0.890625 0 1.484375 0.59375q0.59375 0.59375 0.59375 1.484375q0 0.890625 -0.59375 1.484375q-0.59375 0.59375 -1.484375 0.59375zm-2.515625 4.15625q2.671875 2.828125 4.0 5.203125l-1.625 1.109375q-1.5625 -2.75 -3.796875 -5.125l1.421875 -1.1875zm-3.5625 -3.1875l6.828125 0l0 1.640625l-6.828125 0l0 10.3125l-1.71875 0l0 -10.3125l-6.671875 0l0 -1.640625l6.671875 0l0 -4.15625l1.5625 0q0.8125 0.15625 0.15625 0.59375l0 3.5625zm-3.9375 4.078125q0.4375 0.375 -0.296875 0.53125q-1.109375 2.4375 -2.828125 5.109375l-1.625 -0.890625q1.859375 -2.671875 3.109375 -5.640625l1.640625 0.890625zm28.718754 -1.546875q-3.78125 6.078125 -11.71875 8.609375q-0.234375 0.890625 -0.75 0.078125l-1.03125 -1.640625q8.078125 -1.78125 12.171875 -8.390625l1.328125 1.34375zm-11.421875 2.0q-2.234375 -1.640625 -3.71875 -2.375l1.109375 -1.5625q1.859375 0.96875 3.796875 2.375l-1.1875 1.5625zm2.21875 -4.375q-2.0 -1.421875 -3.703125 -2.375l0.953125 -1.5625q2.015625 1.109375 3.796875 2.375l-1.046875 1.5625zm6.15625 -5.046875q1.265625 0.953125 2.53125 2.296875l-0.96875 0.96875q-1.328125 -1.484375 -2.515625 -2.375l0.953125 -0.890625zm-1.78125 1.25q1.265625 1.046875 2.53125 2.375l-0.96875 0.890625q-1.265625 -1.328125 -2.59375 -2.4375l1.03125 -0.828125zm9.9453125 5.5q3.640625 1.03125 7.359375 2.8125l-0.890625 1.71875q-3.9375 -2.015625 -6.46875 -2.671875l0 7.71875l-1.703125 0l0 -14.84375l1.484375 0q0.890625 0.0625 0.21875 0.59375l0 4.671875zm19.742188 2.375q0 5.5625 -5.1875 8.015625l-1.484375 -1.265625q4.890625 -2.21875 4.96875 -6.828125l0 -7.421875l1.5625 0q0.734375 0.15625 0.140625 0.59375l0 6.90625zm-7.640625 1.625l-1.703125 0l0 -8.375l1.625 0q0.75 0.0625 0.078125 0.59375l0 7.78125z" fill-rule="nonzero"/><path fill="#d9ead3" d="m460.11023 87.40157l276.72443 0l0 54.960625l-276.72443 0z" fill-rule="evenodd"/><path stroke="#000000" stroke-width="1.0" stroke-linejoin="round" stroke-linecap="butt" d="m460.11023 87.40157l276.72443 0l0 54.960625l-276.72443 0z" fill-rule="evenodd"/><path fill="#000000" d="m484.92273 118.67689l0 1.640625l-14.765625 0l0 -1.640625l6.453125 0l0 -7.34375l-5.203125 0l0 -1.625l12.03125 0l0 1.625l-5.125 0l0 7.34375l6.609375 0zm16.621094 -5.484375q-3.9375 8.15625 -13.203125 8.609375q-0.375 0.96875 -0.75 0.15625l-0.59375 -1.9375q9.65625 -0.21875 12.984375 -7.9375l1.5625 1.109375zm-10.46875 0q-2.0 -1.859375 -3.78125 -3.046875l1.265625 -1.5625q1.5625 0.96875 3.9375 3.203125l-1.421875 1.40625zm19.371094 1.1875l-7.421875 0l0 -1.640625l15.21875 0l0 1.640625l-6.078125 0l0 0.96875q0 4.671875 -3.34375 7.71875l-1.484375 -1.109375q3.109375 -2.453125 3.109375 -6.609375l0 -0.96875zm-4.75 -4.53125l0 -1.625l9.875 0l0 1.625l-9.875 0zm21.378906 13.4375l-1.484375 0l0 -6.90625q-1.625 1.265625 -4.890625 2.890625l-1.046875 -1.25q7.046875 -3.421875 9.65625 -7.5l1.25 0.96875q0.453125 0.359375 -0.296875 0.515625q-1.25 1.5625 -3.1875 3.1875l0 8.09375zm12.613281 -8.90625l-7.421875 0l0 -1.640625l15.21875 0l0 1.640625l-6.078125 0l0 0.96875q0 4.671875 -3.34375 7.71875l-1.484375 -1.109375q3.109375 -2.453125 3.109375 -6.609375l0 -0.96875zm-4.75 -4.53125l0 -1.625l9.875 0l0 1.625l-9.875 0zm21.378906 13.4375l-1.484375 0l0 -6.90625q-1.625 1.265625 -4.890625 2.890625l-1.046875 -1.25q7.046875 -3.421875 9.65625 -7.5l1.25 0.96875q0.453125 0.359375 -0.296875 0.515625q-1.25 1.5625 -3.1875 3.1875l0 8.09375z" fill-rule="nonzero"/><path fill="#d9ead3" d="m459.81104 153.13124l276.72443 0l0 54.960617l-276.72443 0z" fill-rule="evenodd"/><path stroke="#000000" stroke-width="1.0" stroke-linejoin="round" stroke-linecap="butt" d="m459.81104 153.13124l276.72443 0l0 54.960617l-276.72443 0z" fill-rule="evenodd"/><path fill="#000000" d="m479.20166 183.15656q-3.9375 -2.015625 -6.453125 -2.671875l0 7.71875l-1.703125 0l0 -14.84375l1.484375 0q0.890625 0.0625 0.21875 0.59375l0 4.671875q3.640625 1.03125 7.34375 2.8125l-0.890625 1.71875zm-0.140625 -6.53125q-1.265625 -1.5625 -2.53125 -2.53125l0.96875 -0.734375q1.265625 0.953125 2.515625 2.515625l-0.953125 0.75zm1.78125 -1.421875q-0.96875 -1.25 -2.453125 -2.4375l0.96875 -0.75q1.25 0.890625 2.4375 2.453125l-0.953125 0.734375zm2.2929688 11.0625q4.53125 -2.453125 6.53125 -5.5625q-2.078125 -1.265625 -3.640625 -1.9375l0.890625 -1.625q1.640625 0.734375 3.71875 1.921875q1.03125 -2.140625 1.78125 -5.78125l1.78125 0.59375q0.515625 0.140625 -0.078125 0.4375q-0.96875 3.71875 -2.0 5.71875q1.78125 1.1875 2.890625 2.078125l-0.96875 1.703125q-1.484375 -1.25 -2.8125 -2.140625q-2.75 3.703125 -6.53125 6.015625l-1.5625 -1.421875zm13.875 -4.15625q7.796875 -3.265625 11.8125 -9.203125l1.40625 1.1875q0.59375 0.453125 -0.515625 0.671875q-1.421875 1.859375 -3.640625 3.78125l0 10.09375l-1.703125 0l0 -8.6875q-2.609375 2.015625 -6.09375 3.640625l-1.265625 -1.484375zm29.988281 -3.1875q-3.9375 8.15625 -13.203125 8.609375q-0.375 0.96875 -0.75 0.15625l-0.59375 -1.9375q9.65625 -0.21875 12.984375 -7.9375l1.5625 1.109375zm-10.46875 0q-2.0 -1.859375 -3.78125 -3.046875l1.265625 -1.5625q1.5625 0.96875 3.9375 3.203125l-1.421875 1.40625zm24.871094 -1.265625l4.375 0l0 1.640625l-4.296875 0l0 1.40625q0 5.5625 -5.875 7.9375l-1.1875 -1.328125q5.34375 -1.78125 5.34375 -6.46875l0 -1.546875l-4.890625 0l0.078125 3.78125l-1.640625 0l-0.078125 -3.78125l-4.15625 0l0 -1.640625l4.15625 0l-0.0625 -3.9375l1.546875 0q0.75 0.078125 0.078125 0.75l0.078125 3.1875l4.828125 0l0 -4.53125l1.625 0q0.75 0.078125 0.078125 0.75l0 3.78125zm6.453125 3.78125l0 -1.625l16.546875 0l0 1.625l-16.546875 0zm30.210938 -3.109375q0.375 0.671875 -0.671875 0.21875q-4.15625 1.109375 -8.75 1.703125l0 4.828125q0 0.96875 0.953125 0.96875l8.546875 0l-0.15625 1.640625l-8.6875 0q-2.375 0 -2.375 -1.9375l0 -11.65625l1.484375 0q0.828125 0.15625 0.234375 0.59375l0 3.78125q5.046875 -0.59375 8.828125 -1.84375l0.59375 1.703125zm-0.890625 -2.453125q-1.1875 -1.484375 -2.296875 -2.59375l1.03125 -0.8125q1.046875 0.953125 2.296875 2.59375l-1.03125 0.8125zm2.15625 -1.03125q-1.34375 -1.5625 -2.3125 -2.53125l0.890625 -0.8125q1.125 1.03125 2.375 2.515625l-0.953125 0.828125zm12.246094 5.9375q3.1875 2.4375 6.296875 5.640625l-1.484375 1.265625q-3.109375 -3.28125 -6.0 -5.5q-2.90625 3.109375 -6.609375 5.5625l-1.40625 -1.265625q7.859375 -5.109375 10.09375 -10.234375l-8.09375 0.515625l-0.21875 -1.78125l8.609375 -0.375l0.890625 -0.21875l1.1875 1.1875q0.515625 0.515625 -0.296875 0.671875q-1.421875 2.453125 -2.96875 4.53125z" fill-rule="nonzero"/><path fill="#d9ead3" d="m459.81104 218.86089l276.72443 0l0 54.960648l-276.72443 0z" fill-rule="evenodd"/><path stroke="#000000" stroke-width="1.0" stroke-linejoin="round" stroke-linecap="butt" d="m459.81104 218.86089l276.72443 0l0 54.960648l-276.72443 0z" fill-rule="evenodd"/><path fill="#000000" d="m473.7798 242.65182q0.890625 0.140625 0.296875 0.515625l0 11.578125l-1.484375 0l0 -9.5q-0.8125 1.484375 -1.921875 2.515625l-1.046875 -1.546875q2.75 -2.453125 3.796875 -8.171875l1.625 0.453125q0.671875 0.21875 -0.140625 0.515625q-0.375 1.921875 -1.125 3.640625zm7.578125 0.890625l5.265625 0l0 1.625l-5.265625 0l0 7.125l4.59375 0l0 1.640625l-10.53125 0l0 -1.640625l4.453125 0l0 -7.125l-4.96875 0l0 -1.625l4.96875 0l0 -5.28125l1.40625 0q0.59375 0.078125 0.078125 0.453125l0 4.828125zm13.734375 8.453125q2.734375 -1.1875 4.515625 -2.8125l0 -2.375l-4.515625 0l0 -1.1875l4.515625 0l0 -1.421875l-3.265625 0l0 -1.1875l3.265625 0l0 -1.546875l-4.15625 0l0 -1.1875l2.609375 0q-0.453125 -0.671875 -1.125 -1.265625l0.96875 -0.890625q0.671875 0.515625 1.484375 1.484375l-0.734375 0.671875l2.0 0l1.03125 -2.53125l1.484375 0.515625q0.296875 0.296875 -0.21875 0.375l-0.96875 1.640625l3.265625 0l0 1.1875l-4.375 0l0 1.546875l3.484375 0l0 1.1875l-3.484375 0l0 1.421875l4.90625 0l0 1.1875l-4.90625 0l0 0.4375q0.515625 1.046875 1.34375 1.9375q0.8125 -0.75 1.546875 -2.015625l1.265625 0.890625q0.375 0.375 -0.21875 0.296875q-0.75 0.890625 -1.703125 1.78125q0.8125 0.890625 2.8125 2.234375l-1.03125 1.265625q-2.375 -1.640625 -4.015625 -4.15625l0 4.15625q0 1.109375 -0.8125 1.109375l-1.40625 0l-0.234375 -1.1875l0.890625 0q0.296875 0 0.296875 -0.296875l0 -2.453125q-1.25 1.265625 -3.328125 2.375q0 0.59375 -0.296875 0.234375l-0.890625 -1.421875zm2.375 -2.078125q-0.453125 -0.890625 -1.421875 -1.78125l1.125 -0.8125q0.953125 0.734375 1.546875 1.78125l-1.25 0.8125zm-4.53125 -4.890625q1.265625 1.03125 2.296875 2.078125l-0.890625 1.484375q-0.734375 -0.96875 -1.40625 -1.640625l0 7.953125l-1.484375 0l0 -8.09375q-0.8125 2.078125 -1.9375 3.40625l-1.109375 -1.265625q2.078125 -2.671875 2.890625 -6.078125l-2.21875 0l0 -1.40625l2.375 0l0 -3.5l1.40625 0q0.59375 0.078125 0.078125 0.453125l0 3.046875l1.859375 0l0 1.40625l-1.859375 0l0 2.15625z" fill-rule="nonzero"/><path fill="#d9ead3" d="m459.81104 284.59055l276.72443 0l0 54.960632l-276.72443 0z" fill-rule="evenodd"/><path stroke="#000000" stroke-width="1.0" stroke-linejoin="round" stroke-linecap="butt" d="m459.81104 284.59055l276.72443 0l0 54.960632l-276.72443 0z" fill-rule="evenodd"/><path fill="#000000" d="m475.20166 304.36588q-0.234375 0.671875 -0.828125 1.265625l3.640625 0q0.515625 -1.1875 0.75 -1.9375l1.484375 0.296875q0.296875 0.296875 -0.234375 0.375l-0.59375 1.265625l5.9375 0l0 1.1875l-6.15625 0l0 0.96875l4.96875 0l0 1.1875l-4.96875 0l0 0.953125l4.96875 0l0 1.1875l-4.96875 0l0 1.125l6.6875 0l0 1.1875l-6.6875 0l0 1.109375l7.28125 0l0 1.40625l-5.796875 0q2.375 1.703125 6.09375 2.53125l-0.53125 1.484375q-4.15625 -1.046875 -7.046875 -3.71875l0 4.390625l-1.484375 0l0 -4.3125q-2.296875 2.375 -7.34375 3.859375l-0.515625 -1.40625q3.78125 -0.96875 6.375 -2.828125l-5.9375 0l0 -1.40625l7.421875 0l0 -1.109375l-2.59375 0l-2.59375 0l0 -5.28125q-0.671875 0.75 -1.640625 1.484375l-0.8125 -1.03125q2.8125 -2.296875 3.9375 -5.046875l1.40625 0.4375q0.296875 0.296875 -0.21875 0.375zm-1.421875 6.75l0 1.125l3.9375 0l0 -1.125l-3.9375 0zm0 -2.140625l0 0.953125l3.9375 0l0 -0.953125l-3.9375 0zm0 -2.15625l0 0.96875l3.9375 0l0 -0.96875l-3.9375 0zm25.6875 5.1875q1.40625 1.046875 2.59375 2.96875l-1.265625 0.96875q-0.8125 -1.703125 -2.375 -2.96875l1.046875 -0.96875zm1.109375 -7.34375q-0.296875 1.40625 -0.8125 2.75l5.5625 0l-0.296875 10.09375q-0.078125 2.890625 -2.15625 2.890625l-2.8125 0l-0.21875 -1.625l2.375 0q1.25 0 1.328125 -1.484375l0.21875 -8.46875l-4.515625 0q-0.53125 1.1875 -1.1875 2.078125l-1.265625 -0.890625q1.703125 -2.21875 2.453125 -6.3125l1.546875 0.59375q0.296875 0.296875 -0.21875 0.375zm-4.96875 13.734375q-0.078125 -2.078125 -0.75 -3.9375l1.34375 -0.375q0.8125 1.9375 0.96875 3.9375l-1.5625 0.375zm-6.453125 0.296875q0.65625 -1.78125 0.890625 -4.3125l1.484375 0.234375q0.21875 0.21875 -0.15625 0.4375q-0.296875 2.53125 -0.890625 4.15625l-1.328125 -0.515625zm6.15625 -7.28125q-0.15625 -0.59375 -0.671875 -1.109375l1.046875 -0.671875q1.328125 1.640625 1.78125 3.125l-1.1875 0.671875l-0.375 -0.890625l-2.0 0.21875l0 8.015625l-1.484375 0l0 -7.875l-2.90625 0.234375q-0.0625 0.515625 -0.359375 0.21875l-0.234375 -1.78125l1.640625 0l1.328125 -1.5625q-1.40625 -1.109375 -2.890625 -2.078125l0.890625 -1.109375l0.75 0.4375l2.296875 -3.703125l1.40625 0.8125q0.21875 0.375 -0.21875 0.296875l-2.375 3.265625l1.109375 0.8125l2.15625 -2.96875l1.328125 0.828125q0.234375 0.359375 -0.21875 0.296875l-3.78125 4.671875l2.96875 -0.15625z" fill-rule="nonzero"/></g></svg>