<svg version="1.1" viewBox="0.0 0.0 760.2992125984252 564.1784776902887" fill="none" stroke="none" stroke-linecap="square" stroke-miterlimit="10" xmlns:xlink="http://www.w3.org/1999/xlink" xmlns="http://www.w3.org/2000/svg"><clipPath id="p.0"><path d="m0 0l760.2992 0l0 564.17847l-760.2992 0l0 -564.17847z" clip-rule="nonzero"/></clipPath><g clip-path="url(#p.0)"><path fill="#000000" fill-opacity="0.0" d="m0 0l760.2992 0l0 564.17847l-760.2992 0z" fill-rule="evenodd"/><path fill="#cfe2f3" d="m9.401575 9.406824l303.59055 0l0 374.77164l-303.59055 0z" fill-rule="evenodd"/><path stroke="#000000" stroke-width="1.0" stroke-linejoin="round" stroke-linecap="butt" d="m9.401575 9.406824l303.59055 0l0 374.77164l-303.59055 0z" fill-rule="evenodd"/><path fill="#cfe2f3" d="m22.16273 73.215225l276.72443 0l0 54.960632l-276.72443 0z" fill-rule="evenodd"/><path stroke="#000000" stroke-width="1.0" stroke-linejoin="round" stroke-linecap="butt" d="m22.16273 73.215225l276.72443 0l0 54.960632l-276.72443 0z" fill-rule="evenodd"/><path fill="#000000" d="m32.553356 107.61554l0 -13.359375l2.65625 0l3.15625 9.453125q0.4375 1.328125 0.640625 1.984375q0.234375 -0.734375 0.703125 -2.140625l3.203125 -9.296875l2.375 0l0 13.359375l-1.703125 0l0 -11.171875l-3.875 11.171875l-1.59375 0l-3.859375 -11.375l0 11.375l-1.703125 0zm14.775177 -4.84375q0 -2.6875 1.484375 -3.96875q1.25 -1.078125 3.046875 -1.078125q2.0 0 3.265625 1.3125q1.265625 1.296875 1.265625 3.609375q0 1.859375 -0.5625 2.9375q-0.5625 1.0625 -1.640625 1.65625q-1.0625 0.59375 -2.328125 0.59375q-2.03125 0 -3.28125 -1.296875q-1.25 -1.3125 -1.25 -3.765625zm1.6875 0q0 1.859375 0.796875 2.796875q0.8125 0.921875 2.046875 0.921875q1.21875 0 2.03125 -0.921875q0.8125 -0.9375 0.8125 -2.84375q0 -1.796875 -0.8125 -2.71875q-0.8125 -0.921875 -2.03125 -0.921875q-1.234375 0 -2.046875 0.921875q-0.796875 0.90625 -0.796875 2.765625zm15.563213 4.84375l0 -1.21875q-0.9062462 1.4375 -2.7031212 1.4375q-1.15625 0 -2.125 -0.640625q-0.96875 -0.640625 -1.5 -1.78125q-0.53125 -1.140625 -0.53125 -2.625q0 -1.453125 0.484375 -2.625q0.484375 -1.1875 1.4375 -1.8125q0.96875 -0.625 2.171875 -0.625q0.875 0 1.546875 0.375q0.6874962 0.359375 1.1093712 0.953125l0 -4.796875l1.640625 0l0 13.359375l-1.53125 0zm-5.171871 -4.828125q0 1.859375 0.78125 2.78125q0.78125 0.921875 1.84375 0.921875q1.078125 0 1.828125 -0.875q0.7499962 -0.890625 0.7499962 -2.6875q0 -1.984375 -0.7656212 -2.90625q-0.765625 -0.9375 -1.890625 -0.9375q-1.078125 0 -1.8125 0.890625q-0.734375 0.890625 -0.734375 2.8125zm15.906963 1.71875l1.6875 0.203125q-0.40625 1.484375 -1.484375 2.3125q-1.078125 0.8125 -2.765625 0.8125q-2.125 0 -3.375 -1.296875q-1.234375 -1.3125 -1.234375 -3.671875q0 -2.453125 1.25 -3.796875q1.265625 -1.34375 3.265625 -1.34375q1.9375 0 3.15625 1.328125q1.234375 1.3125 1.234375 3.703125q0 0.15625 0 0.4375l-7.21875 0q0.09375 1.59375 0.90625 2.453125q0.8125 0.84375 2.015625 0.84375q0.90625 0 1.546875 -0.46875q0.640625 -0.484375 1.015625 -1.515625zm-5.390625 -2.65625l5.40625 0q-0.109375 -1.21875 -0.625 -1.828125q-0.78125 -0.953125 -2.03125 -0.953125q-1.125 0 -1.90625 0.765625q-0.765625 0.75 -0.84375 2.015625zm9.094467 5.765625l0 -13.359375l1.640625 0l0 13.359375l-1.640625 0z" fill-rule="nonzero"/><path fill="#000000" d="m95.63175 95.74054q3.046875 3.109375 4.15625 7.5l-1.625 0.65625q-1.34375 -4.8125 -3.859375 -7.1875l1.328125 -0.96875zm-2.21875 5.9375q0 4.296875 -1.265625 5.5625q-0.75 0.75 -1.703125 0.75q-1.421875 0 -2.828125 -1.640625l0.96875 -1.328125q1.1875 1.1875 1.78125 1.1875q0.375 0 0.671875 -0.296875q0.8125 -0.828125 0.8125 -4.53125q0 -2.078125 -0.453125 -2.53125q-0.21875 -0.21875 -0.890625 -0.21875q-0.65625 0 -1.84375 0.15625q-1.5625 5.484375 -3.71875 9.421875l-1.703125 -0.59375q2.15625 -3.34375 3.78125 -8.6875q-1.625 0.21875 -3.1875 0.375l-0.15625 -1.640625q1.34375 0 3.71875 -0.21875q0.671875 -2.296875 1.109375 -4.671875l1.5625 0.515625q0.890625 0.375 -0.078125 0.671875q-0.4375 1.5625 -0.890625 3.34375q0.890625 -0.15625 1.859375 -0.15625q1.03125 0 1.5625 0.515625q0.890625 0.890625 0.890625 4.015625zm4.15625 -9.796875q1.328125 0.734375 2.96875 2.078125l-0.890625 0.890625q-1.640625 -1.265625 -2.96875 -2.078125l0.890625 -0.890625zm0.515625 4.75q-1.703125 -1.40625 -2.890625 -2.15625l0.890625 -0.890625q1.328125 0.75 2.96875 2.078125l-0.96875 0.96875zm14.921875 11.140625l1.1875 0q0.296875 0 0.296875 -0.3125l0 -4.21875l-6.09375 0l0 -1.421875l6.09375 0l0 -2.0l-6.46875 0l0 -1.40625l4.3125 0l0 -2.15625l-3.421875 0l0 -1.40625l3.421875 0l0 -2.53125l1.40625 0q0.59375 0.078125 0.078125 0.453125l0 2.078125l3.703125 0l0 1.40625l-3.703125 0l0 2.15625l5.125 0l0 1.40625l-2.96875 0l0 2.0l2.59375 0l0 1.421875l-2.59375 0l0 4.75q0 1.1875 -1.1875 1.1875l-1.484375 0l-0.296875 -1.40625zm-9.796875 0l1.03125 0q0.296875 0 0.296875 -0.3125l0 -4.59375l-1.5625 0.515625q-0.296875 0.75 -0.515625 0.078125l-0.515625 -1.40625l2.59375 -0.671875l0 -4.375l-2.296875 0l0 -1.421875l2.296875 0l0 -3.328125l1.40625 0q0.59375 0.0625 0.078125 0.4375l0 2.890625l2.15625 0l0 1.421875l-2.15625 0l0 3.921875l1.859375 -0.65625l0.375 1.25l-2.234375 0.890625l0 5.578125q0 1.1875 -1.1875 1.1875l-1.328125 0l-0.296875 -1.40625zm7.265625 -3.71875q0.890625 0.59375 1.859375 1.859375l-1.1875 1.109375q-0.75 -0.96875 -1.78125 -1.9375l1.109375 -1.03125zm15.8125 1.328125q5.5625076 -0.0625 7.3437576 -1.84375q1.109375 -1.125 1.109375 -2.75q0 -1.703125 -1.1875 -2.890625q-0.890625 -0.890625 -3.109375 -0.890625q-1.859375 0 -4.3750076 0.890625q-1.9375 0.65625 -4.234375 1.703125l-0.8125 -1.9375l4.15625 -1.1875q3.6250076 -1.03125 5.4843826 -1.03125q2.96875 0 4.375 1.40625q1.421875 1.40625 1.421875 3.78125q0 2.53125 -1.34375 3.859375q-2.515625 2.53125 -8.390633 2.609375l-0.4375 -1.71875z" fill-rule="nonzero"/><path fill="#000000" d="m145.63176 106.42804q-0.921875 0.765625 -1.765625 1.09375q-0.828125 0.3125 -1.796875 0.3125q-1.59375 0 -2.453125 -0.78125q-0.859375 -0.78125 -0.859375 -1.984375q0 -0.71875 0.328125 -1.296875q0.328125 -0.59375 0.84375 -0.9375q0.53125 -0.359375 1.1875 -0.546875q0.46875 -0.125 1.453125 -0.25q1.984375 -0.234375 2.921875 -0.5625q0.015625 -0.34375 0.015625 -0.421875q0 -1.0 -0.46875 -1.421875q-0.625 -0.546875 -1.875 -0.546875q-1.15625 0 -1.703125 0.40625q-0.546875 0.40625 -0.8125 1.421875l-1.609375 -0.21875q0.21875 -1.015625 0.71875 -1.640625q0.5 -0.640625 1.453125 -0.984375q0.953125 -0.34375 2.1875 -0.34375q1.25 0 2.015625 0.296875q0.78125 0.28125 1.140625 0.734375q0.375 0.4375 0.515625 1.109375q0.078125 0.421875 0.078125 1.515625l0 2.1875q0 2.28125 0.109375 2.890625q0.109375 0.59375 0.40625 1.15625l-1.703125 0q-0.265625 -0.515625 -0.328125 -1.1875zm-0.140625 -3.671875q-0.890625 0.375 -2.671875 0.625q-1.015625 0.140625 -1.4375 0.328125q-0.421875 0.1875 -0.65625 0.53125q-0.21875 0.34375 -0.21875 0.78125q0 0.65625 0.5 1.09375q0.5 0.4375 1.453125 0.4375q0.9375 0 1.671875 -0.40625q0.75 -0.421875 1.09375 -1.140625q0.265625 -0.5625 0.265625 -1.640625l0 -0.609375zm10.469467 4.859375l0 -1.21875q-0.90625 1.4375 -2.703125 1.4375q-1.15625 0 -2.125 -0.640625q-0.96875 -0.640625 -1.5 -1.78125q-0.53125 -1.140625 -0.53125 -2.625q0 -1.453125 0.484375 -2.625q0.484375 -1.1875 1.4375 -1.8125q0.96875 -0.625 2.171875 -0.625q0.875 0 1.546875 0.375q0.6875 0.359375 1.109375 0.953125l0 -4.796875l1.640625 0l0 13.359375l-1.53125 0zm-5.171875 -4.828125q0 1.859375 0.78125 2.78125q0.78125 0.921875 1.84375 0.921875q1.078125 0 1.828125 -0.875q0.75 -0.890625 0.75 -2.6875q0 -1.984375 -0.765625 -2.90625q-0.765625 -0.9375 -1.890625 -0.9375q-1.078125 0 -1.8125 0.890625q-0.734375 0.890625 -0.734375 2.8125zm15.547592 4.828125l0 -1.21875q-0.90625 1.4375 -2.703125 1.4375q-1.15625 0 -2.125 -0.640625q-0.96875 -0.640625 -1.5 -1.78125q-0.53125 -1.140625 -0.53125 -2.625q0 -1.453125 0.484375 -2.625q0.484375 -1.1875 1.4375 -1.8125q0.96875 -0.625 2.171875 -0.625q0.875 0 1.546875 0.375q0.6875 0.359375 1.109375 0.953125l0 -4.796875l1.640625 0l0 13.359375l-1.53125 0zm-5.171875 -4.828125q0 1.859375 0.78125 2.78125q0.78125 0.921875 1.84375 0.921875q1.078125 0 1.828125 -0.875q0.75 -0.890625 0.75 -2.6875q0 -1.984375 -0.765625 -2.90625q-0.765625 -0.9375 -1.890625 -0.9375q-1.078125 0 -1.8125 0.890625q-0.734375 0.890625 -0.734375 2.8125zm12.891342 4.828125l0 -11.78125l-4.40625 0l0 -1.578125l10.578125 0l0 1.578125l-4.40625 0l0 11.78125l-1.765625 0zm5.1082153 -4.84375q0 -2.6875 1.484375 -3.96875q1.25 -1.078125 3.046875 -1.078125q2.0 0 3.265625 1.3125q1.265625 1.296875 1.265625 3.609375q0 1.859375 -0.5625 2.9375q-0.5625 1.0625 -1.640625 1.65625q-1.0625 0.59375 -2.328125 0.59375q-2.03125 0 -3.28125 -1.296875q-1.25 -1.3125 -1.25 -3.765625zm1.6875 0q0 1.859375 0.796875 2.796875q0.8125 0.921875 2.046875 0.921875q1.21875 0 2.03125 -0.921875q0.8125 -0.9375 0.8125 -2.84375q0 -1.796875 -0.8125 -2.71875q-0.8125 -0.921875 -2.03125 -0.921875q-1.234375 0 -2.046875 0.921875q-0.796875 0.90625 -0.796875 2.765625zm15.563217 4.84375l0 -1.21875q-0.90625 1.4375 -2.703125 1.4375q-1.15625 0 -2.125 -0.640625q-0.96875 -0.640625 -1.5 -1.78125q-0.53125 -1.140625 -0.53125 -2.625q0 -1.453125 0.484375 -2.625q0.484375 -1.1875 1.4375 -1.8125q0.96875 -0.625 2.171875 -0.625q0.875 0 1.546875 0.375q0.6875 0.359375 1.109375 0.953125l0 -4.796875l1.640625 0l0 13.359375l-1.53125 0zm-5.171875 -4.828125q0 1.859375 0.78125 2.78125q0.78125 0.921875 1.84375 0.921875q1.078125 0 1.828125 -0.875q0.75 -0.890625 0.75 -2.6875q0 -1.984375 -0.765625 -2.90625q-0.765625 -0.9375 -1.890625 -0.9375q-1.078125 0 -1.8125 0.890625q-0.734375 0.890625 -0.734375 2.8125zm8.672592 -0.015625q0 -2.6875 1.484375 -3.96875q1.25 -1.078125 3.046875 -1.078125q2.0 0 3.265625 1.3125q1.265625 1.296875 1.265625 3.609375q0 1.859375 -0.5625 2.9375q-0.5625 1.0625 -1.640625 1.65625q-1.0625 0.59375 -2.328125 0.59375q-2.03125 0 -3.28125 -1.296875q-1.25 -1.3125 -1.25 -3.765625zm1.6875 0q0 1.859375 0.796875 2.796875q0.8125 0.921875 2.046875 0.921875q1.21875 0 2.03125 -0.921875q0.8125 -0.9375 0.8125 -2.84375q0 -1.796875 -0.8125 -2.71875q-0.8125 -0.921875 -2.03125 -0.921875q-1.234375 0 -2.046875 0.921875q-0.796875 0.90625 -0.796875 2.765625z" fill-rule="nonzero"/><path fill="#000000" d="m210.55678 106.349915q4.53125 -2.453125 6.53125 -5.5625q-2.078125 -1.265625 -3.640625 -1.9375l0.890625 -1.625q1.640625 0.734375 3.71875 1.921875q1.03125 -2.140625 1.78125 -5.78125l1.78125 0.59375q0.515625 0.140625 -0.078125 0.4375q-0.96875 3.71875 -2.0 5.71875q1.78125 1.1875 2.890625 2.078125l-0.96875 1.703125q-1.484375 -1.25 -2.8125 -2.140625q-2.75 3.703125 -6.53125 6.015625l-1.5625 -1.421875zm22.484375 -3.78125q1.71875 -2.296875 2.3125 -7.71875l1.84375 0.296875q0.671875 0.140625 -0.0625 0.671875q-0.453125 4.75 -2.75 8.015625q-1.703125 2.4375 -6.390625 4.890625l-1.328125 -1.328125q4.234375 -1.9375 6.375 -4.828125zm-6.078125 -2.453125q-1.34375 -2.890625 -2.59375 -4.375l1.625 -0.890625q1.265625 1.5625 2.671875 4.296875l-1.703125 0.96875zm24.414062 -1.5625q-0.515625 4.828125 -2.671875 6.984375q-2.15625 2.15625 -5.640625 3.421875l-0.96875 -1.421875q3.421875 -1.109375 5.34375 -3.046875q2.078125 -2.078125 2.375 -7.046875l1.5625 0.515625q0.671875 0.234375 0 0.59375zm-6.3125 2.671875q-0.890625 -2.0 -1.78125 -3.328125l1.421875 -0.75q1.109375 1.40625 1.921875 3.34375l-1.5625 0.734375zm-3.78125 1.125q-0.890625 -2.078125 -1.859375 -3.5l1.484375 -0.734375q1.046875 1.40625 1.859375 3.40625l-1.484375 0.828125zm21.67186 0.890625q-3.9375 -2.015625 -6.453125 -2.671875l0 7.71875l-1.7031097 0l0 -14.84375l1.4843597 0q0.890625 0.0625 0.21875 0.59375l0 4.671875q3.640625 1.03125 7.34375 2.8125l-0.890625 1.71875zm-0.140625 -6.53125q-1.265625 -1.5625 -2.53125 -2.53125l0.96875 -0.734375q1.265625 0.953125 2.515625 2.515625l-0.953125 0.75zm1.78125 -1.421875q-0.96875 -1.25 -2.453125 -2.4375l0.96875 -0.75q1.25 0.890625 2.4375 2.453125l-0.953125 0.734375z" fill-rule="nonzero"/><path fill="#cfe2f3" d="m22.16273 137.57217l276.72443 0l0 54.960632l-276.72443 0z" fill-rule="evenodd"/><path stroke="#000000" stroke-width="1.0" stroke-linejoin="round" stroke-linecap="butt" d="m22.16273 137.57217l276.72443 0l0 54.960632l-276.72443 0z" fill-rule="evenodd"/><path fill="#000000" d="m38.709606 170.78499q-0.921875 0.765625 -1.765625 1.09375q-0.828125 0.3125 -1.796875 0.3125q-1.59375 0 -2.453125 -0.78125q-0.8593769 -0.78125 -0.8593769 -1.984375q0 -0.71875 0.3281269 -1.296875q0.328125 -0.59375 0.84375 -0.9375q0.53125 -0.359375 1.1875 -0.546875q0.46875 -0.125 1.453125 -0.25q1.984375 -0.234375 2.921875 -0.5625q0.015625 -0.34375 0.015625 -0.421875q0 -1.0 -0.46875 -1.421875q-0.625 -0.546875 -1.875 -0.546875q-1.15625 0 -1.703125 0.40625q-0.546875 0.40625 -0.8125 1.421875l-1.609375 -0.21875q0.21875 -1.015625 0.71875 -1.640625q0.5 -0.640625 1.453125 -0.984375q0.953125 -0.34375 2.1875 -0.34375q1.25 0 2.015625 0.296875q0.78125 0.28125 1.140625 0.734375q0.375 0.4375 0.515625 1.109375q0.078125 0.421875 0.078125 1.515625l0 2.1875q0 2.28125 0.109375 2.890625q0.109375 0.59375 0.40625 1.15625l-1.703125 0q-0.265625 -0.515625 -0.328125 -1.1875zm-0.140625 -3.671875q-0.890625 0.375 -2.671875 0.625q-1.015625 0.140625 -1.4375 0.328125q-0.421875 0.1875 -0.65625 0.53125q-0.21875 0.34375 -0.21875 0.78125q0 0.65625 0.5 1.09375q0.5 0.4375 1.453125 0.4375q0.9375 0 1.671875 -0.40625q0.75 -0.421875 1.09375 -1.140625q0.265625 -0.5625 0.265625 -1.640625l0 -0.609375zm10.469467 4.859375l0 -1.21875q-0.90625 1.4375 -2.703125 1.4375q-1.15625 0 -2.125 -0.640625q-0.96875 -0.640625 -1.5 -1.78125q-0.53125 -1.140625 -0.53125 -2.625q0 -1.453125 0.484375 -2.625q0.484375 -1.1875 1.4375 -1.8125q0.96875 -0.625 2.171875 -0.625q0.875 0 1.546875 0.375q0.6875 0.359375 1.109375 0.953125l0 -4.796875l1.640625 0l0 13.359375l-1.53125 0zm-5.171875 -4.828125q0 1.859375 0.78125 2.78125q0.78125 0.921875 1.84375 0.921875q1.078125 0 1.828125 -0.875q0.75 -0.890625 0.75 -2.6875q0 -1.984375 -0.765625 -2.90625q-0.765625 -0.9375 -1.890625 -0.9375q-1.078125 0 -1.8125 0.890625q-0.734375 0.890625 -0.734375 2.8125zm15.547592 4.828125l0 -1.21875q-0.90625 1.4375 -2.703125 1.4375q-1.15625 0 -2.125 -0.640625q-0.96875 -0.640625 -1.5 -1.78125q-0.53125 -1.140625 -0.53125 -2.625q0 -1.453125 0.484375 -2.625q0.484375 -1.1875 1.4375 -1.8125q0.96875 -0.625 2.171875 -0.625q0.875 0 1.546875 0.375q0.6875 0.359375 1.109375 0.953125l0 -4.796875l1.640625 0l0 13.359375l-1.53125 0zm-5.171875 -4.828125q0 1.859375 0.78125 2.78125q0.78125 0.921875 1.84375 0.921875q1.078125 0 1.828125 -0.875q0.75 -0.890625 0.75 -2.6875q0 -1.984375 -0.765625 -2.90625q-0.765625 -0.9375 -1.890625 -0.9375q-1.078125 0 -1.8125 0.890625q-0.734375 0.890625 -0.734375 2.8125zm12.891338 4.828125l0 -11.78125l-4.406246 0l0 -1.578125l10.578121 0l0 1.578125l-4.40625 0l0 11.78125l-1.765625 0zm5.1082153 -4.84375q0 -2.6875 1.484375 -3.96875q1.25 -1.078125 3.046875 -1.078125q2.0 0 3.265625 1.3125q1.265625 1.296875 1.265625 3.609375q0 1.859375 -0.5625 2.9375q-0.5625 1.0625 -1.640625 1.65625q-1.0625 0.59375 -2.328125 0.59375q-2.03125 0 -3.28125 -1.296875q-1.25 -1.3125 -1.25 -3.765625zm1.6875 0q0 1.859375 0.796875 2.796875q0.8125 0.921875 2.046875 0.921875q1.21875 0 2.03125 -0.921875q0.8125 -0.9375 0.8125 -2.84375q0 -1.796875 -0.8125 -2.71875q-0.8125 -0.921875 -2.03125 -0.921875q-1.234375 0 -2.046875 0.921875q-0.796875 0.90625 -0.796875 2.765625zm15.563217 4.84375l0 -1.21875q-0.90625 1.4375 -2.703125 1.4375q-1.15625 0 -2.125 -0.640625q-0.96875 -0.640625 -1.5 -1.78125q-0.53125 -1.140625 -0.53125 -2.625q0 -1.453125 0.484375 -2.625q0.484375 -1.1875 1.4375 -1.8125q0.96875 -0.625 2.171875 -0.625q0.875 0 1.546875 0.375q0.6875 0.359375 1.109375 0.953125l0 -4.796875l1.640625 0l0 13.359375l-1.53125 0zm-5.171875 -4.828125q0 1.859375 0.78125 2.78125q0.78125 0.921875 1.84375 0.921875q1.078125 0 1.828125 -0.875q0.75 -0.890625 0.75 -2.6875q0 -1.984375 -0.765625 -2.90625q-0.765625 -0.9375 -1.890625 -0.9375q-1.078125 0 -1.8125 0.890625q-0.734375 0.890625 -0.734375 2.8125zm8.672592 -0.015625q0 -2.6875 1.484375 -3.96875q1.25 -1.078125 3.046875 -1.078125q2.0 0 3.265625 1.3125q1.265625 1.296875 1.265625 3.609375q0 1.859375 -0.5625 2.9375q-0.5625 1.0625 -1.640625 1.65625q-1.0625 0.59375 -2.328125 0.59375q-2.03125 0 -3.28125 -1.296875q-1.25 -1.3125 -1.25 -3.765625zm1.6875 0q0 1.859375 0.796875 2.796875q0.8125 0.921875 2.046875 0.921875q1.21875 0 2.03125 -0.921875q0.8125 -0.9375 0.8125 -2.84375q0 -1.796875 -0.8125 -2.71875q-0.8125 -0.921875 -2.03125 -0.921875q-1.234375 0 -2.046875 0.921875q-0.796875 0.90625 -0.796875 2.765625z" fill-rule="nonzero"/><path fill="#000000" d="m116.400246 160.09749q3.046875 3.109375 4.15625 7.5l-1.625 0.65625q-1.34375 -4.8125 -3.859375 -7.1875l1.328125 -0.96875zm-2.21875 5.9375q0 4.296875 -1.265625 5.5625q-0.75 0.75 -1.703125 0.75q-1.421875 0 -2.828125 -1.640625l0.96875 -1.328125q1.1875 1.1875 1.78125 1.1875q0.375 0 0.671875 -0.296875q0.8125 -0.828125 0.8125 -4.53125q0 -2.078125 -0.453125 -2.53125q-0.21875 -0.21875 -0.890625 -0.21875q-0.65625 0 -1.84375 0.15625q-1.5625 5.484375 -3.71875 9.421875l-1.703125 -0.59375q2.15625 -3.34375 3.78125 -8.6875q-1.625 0.21875 -3.1875 0.375l-0.15625 -1.640625q1.34375 0 3.71875 -0.21875q0.671875 -2.296875 1.109375 -4.671875l1.5625 0.515625q0.890625 0.375 -0.078125 0.671875q-0.4375 1.5625 -0.890625 3.34375q0.890625 -0.15625 1.859375 -0.15625q1.03125 0 1.5625 0.515625q0.890625 0.890625 0.890625 4.015625zm4.15625 -9.796875q1.328125 0.734375 2.96875 2.078125l-0.890625 0.890625q-1.640625 -1.265625 -2.96875 -2.078125l0.890625 -0.890625zm0.515625 4.75q-1.703125 -1.40625 -2.890625 -2.15625l0.890625 -0.890625q1.328125 0.75 2.96875 2.078125l-0.96875 0.96875zm10.984383 9.046875q-1.5625 -1.328125 -2.5312576 -3.328125l-1.1875 0l0 -1.1875l8.312508 0l0.453125 -0.453125l1.328125 0.671875q0.453125 0.375 -0.21875 0.4375q-1.703125 2.453125 -3.484375 3.9375q3.1875 1.40625 6.90625 1.703125l-0.453125 1.71875q-5.046875 -0.890625 -7.71875 -2.53125q-3.2656326 1.78125 -7.3437576 2.671875l-0.375 -1.546875q4.3125 -0.90625 6.3125076 -2.09375zm1.265625 -7.78125q-0.59375 -1.265625 -1.484375 -2.234375l1.484375 -0.734375q0.890625 0.734375 1.546875 2.140625l-1.546875 0.828125zm-4.5312576 -2.75q1.03125 0.890625 1.5625076 2.0l-1.4843826 0.890625q-0.59375 -1.109375 -1.5625 -2.0l1.484375 -0.890625zm10.390633 -1.046875q-4.96875 0.53125 -12.171883 0.75l-0.15625 -1.34375q8.609383 -0.296875 11.656258 -0.953125l1.1875 1.40625q0.296875 0.59375 -0.515625 0.140625zm-11.875008 7.875l-1.484375 0l0 -3.71875l10.171883 0q1.109375 -1.78125 2.0 -3.625l1.625 0.890625q0.234375 0.140625 -0.359375 0.359375q-0.828125 1.1875 -1.71875 2.375l3.859375 0l0 3.71875l-1.484375 0l0 -2.296875l-12.609383 0l0 2.296875zm3.8593826 0.375q0.671875 1.40625 2.21875 2.59375q1.484375 -1.109375 2.609375 -2.59375l-4.828125 0zm25.015625 -0.828125q0 4.3125 -2.53125 7.4375l-1.5625 -0.890625q2.609375 -2.984375 2.609375 -6.84375l0 -2.078125q-2.828125 0.234375 -5.34375 0.234375l0 -1.640625q2.515625 0.078125 5.34375 -0.140625l0 -4.53125l1.328125 0q0.671875 0.140625 0.15625 0.59375l0 3.859375q1.84375 -0.15625 3.484375 -0.453125l0.21875 1.5625q-1.921875 0.21875 -3.703125 0.375l0 2.515625zm-11.0625 -0.21875q0 -4.296875 0.734375 -7.5l1.421875 0.375q0.953125 0.21875 0.0625 0.671875q-0.65625 3.1875 -0.65625 6.453125q0 2.671875 0.59375 5.640625l-1.640625 0.296875q-0.515625 -2.671875 -0.515625 -5.9375zm26.273438 5.9375q1.1875 -0.140625 2.0 -0.96875q0.890625 -0.890625 0.890625 -2.375q0 -1.625 -0.96875 -2.59375q-0.953125 -0.96875 -3.03125 -0.96875q-2.453125 0 -3.796875 0.96875q-1.25 0.890625 -3.265625 3.1875l-1.25 -1.109375q5.34375 -5.34375 8.078125 -8.90625q-2.4375 0.296875 -4.890625 0.515625l-0.515625 -1.703125q3.625 0 6.453125 -0.375l0.671875 -0.296875l0.8125 0.828125q0.8125 0.734375 -0.375 0.953125q-2.21875 2.53125 -4.453125 4.984375q1.5625 -0.375 2.59375 -0.375q2.828125 0 4.15625 1.328125q1.34375 1.34375 1.34375 3.421875q0 2.15625 -1.1875 3.34375q-1.78125 1.78125 -4.53125 1.78125q-2.59375 0 -3.78125 -1.1875q-0.96875 -0.96875 -0.96875 -2.3125q0 -0.890625 0.671875 -1.546875q0.734375 -0.75 1.703125 -0.75q1.34375 0 2.234375 0.890625q1.03125 1.046875 1.40625 3.265625zm-1.484375 0.21875q-0.21875 -1.921875 -0.890625 -2.59375q-0.515625 -0.515625 -1.046875 -0.515625q-0.59375 0 -0.890625 0.296875q-0.359375 0.375 -0.359375 0.8125q0 0.671875 0.59375 1.265625q0.734375 0.734375 1.921875 0.734375q0.296875 0 0.671875 0zm18.027344 -6.234375q-0.4375 5.578125 -1.484375 6.90625q-0.515625 0.671875 -1.703125 0.671875l-2.96875 0l-0.21875 -1.40625l2.75 0q0.8125 0 1.109375 -0.53125q0.59375 -0.953125 0.890625 -4.21875l-4.96875 0l-0.15625 0.734375l-1.5625 -0.21875q0.828125 -3.5625 1.046875 -6.015625l5.5625 0l0 -2.375l-6.828125 0l0 -1.40625l8.3125 0l0 5.5625l-1.484375 0l0 -0.375l-4.15625 0q-0.078125 0.453125 -0.4375 2.671875l6.296875 0zm5.578125 7.4375l-1.484375 0l0 -15.515625l1.40625 0q0.59375 0.0625 0.078125 0.4375l0 15.078125zm16.625 -5.125q1.03125 -2.015625 1.25 -6.09375l-2.515625 0q0.21875 4.078125 1.265625 6.09375zm2.734375 -6.09375q-0.140625 4.609375 -1.78125 7.421875q1.1875 1.484375 3.34375 2.59375l-0.96875 1.640625q-2.375 -1.5625 -3.328125 -2.96875q-1.71875 1.9375 -5.28125 3.34375l-0.734375 -1.484375q3.859375 -1.5625 5.125 -3.203125q-1.265625 -2.4375 -1.421875 -4.890625q-0.4375 1.109375 -0.890625 1.703125l-1.25 -0.96875q2.21875 -3.265625 2.671875 -8.078125l1.546875 0.359375q0.453125 0.296875 -0.21875 0.453125q-0.21875 1.328125 -0.59375 2.671875l5.046875 0l0 1.40625l-1.265625 0zm-6.890625 -3.5625q-0.453125 1.109375 -1.046875 1.859375l-1.1875 -0.671875q0.59375 -0.96875 1.109375 -2.21875l1.34375 0.65625q0.296875 0.296875 -0.21875 0.375zm-4.75 10.46875q1.03125 0.296875 1.84375 0.671875q0.59375 -0.671875 0.96875 -2.015625l-2.15625 0q-0.296875 0.671875 -0.65625 1.34375zm-1.046875 1.859375l-1.1875 -0.671875q0.75 -1.109375 1.484375 -2.53125l-2.8125 0l0 -1.1875l3.265625 0q0.4375 -0.953125 0.65625 -1.625l1.421875 0.375q0.296875 0.296875 -0.234375 0.359375l-0.4375 0.890625l4.234375 0l0 1.1875l-1.125 0q-0.359375 1.484375 -1.109375 2.53125q0.671875 0.296875 1.40625 0.734375l-0.65625 1.1875q-0.828125 -0.515625 -1.484375 -0.8125q-1.9375 1.9375 -5.203125 2.375l-0.515625 -1.328125q2.890625 -0.296875 4.453125 -1.640625q-0.8125 -0.375 -1.640625 -0.671875l-0.515625 0.828125zm1.484375 -13.953125l1.1875 0q0.59375 0.0625 0.078125 0.4375l0 3.1875l3.78125 0l0 1.1875l-3.109375 0q0.8125 0.96875 2.515625 1.859375l-0.8125 1.265625q-1.265625 -0.75 -2.375 -2.078125l0 1.78125l-1.265625 0l0 -1.40625q-1.1875 1.484375 -3.265625 2.671875l-0.96875 -1.1875q2.3125 -1.1875 3.796875 -2.90625l-3.421875 0l0 -1.1875l3.859375 0l0 -3.625zm-2.078125 3.40625q-0.515625 -1.109375 -1.328125 -1.921875l1.1875 -0.75q0.890625 0.890625 1.328125 1.859375l-1.1875 0.8125zm25.984375 1.484375q-1.265625 7.421875 -3.046875 9.203125q-0.96875 0.96875 -2.0 0.96875q-1.1875 0 -1.859375 -0.671875q-1.78125 -1.78125 -1.78125 -4.453125q0 -3.265625 2.296875 -5.5625q2.53125 -2.53125 6.15625 -2.53125q3.265625 0 5.125 1.859375q2.078125 2.078125 2.078125 4.90625q0 3.03125 -1.921875 4.96875q-1.265625 1.265625 -3.859375 2.453125l-1.5625 -1.5625q2.59375 -0.8125 4.078125 -2.296875q1.40625 -1.421875 1.40625 -3.421875q0 -2.375 -1.546875 -3.9375q-1.5625 -1.546875 -4.90625 -1.40625l1.34375 0.671875q0.890625 0.375 0 0.8125zm-1.71875 -1.40625q-1.921875 0.4375 -3.328125 1.859375q-1.9375 1.921875 -1.9375 4.75q0 1.703125 1.109375 2.8125q0.234375 0.21875 0.671875 0.21875q0.453125 0 0.96875 -0.515625q1.703125 -1.703125 2.515625 -9.125zm20.640625 6.3125q0.59375 0.0625 0.078125 0.4375l0 1.109375l5.34375 0l0 1.421875l-5.34375 0l0 2.296875l7.34375 0l0 1.40625l-15.953125 0l0 -1.40625l7.125 0l0 -2.296875l-5.203125 0l0 -1.421875l5.203125 0l0 -1.546875l1.40625 0zm-5.859375 -4.09375l-2.828125 0l0 -1.1875l2.828125 0l0 -2.671875l-2.15625 0l0 -1.1875l8.453125 0l0 1.1875l-1.921875 0l0 2.671875l2.453125 0l0 1.1875l-2.453125 0l0 3.9375l-1.265625 0l0 -3.9375l-1.859375 0l0 0.59375q0 3.125 -3.703125 4.453125l-0.59375 -1.40625q3.046875 -0.890625 3.046875 -3.1875l0 -0.453125zm12.46875 -5.265625q0.59375 0.078125 0.0625 0.453125l0 7.71875q0 1.1875 -1.1875 1.1875l-1.484375 0l-0.21875 -1.421875l1.109375 0q0.296875 0 0.296875 -0.296875l0 -7.640625l1.421875 0zm-9.359375 4.078125l0 -2.671875l-1.859375 0l0 2.671875l1.859375 0zm5.9375 -2.8125q0.59375 0.078125 0.078125 0.4375l0 5.5l-1.484375 0l0 -5.9375l1.40625 0z" fill-rule="nonzero"/><path fill="#cfe2f3" d="m9.401575 9.406824l303.59055 0l0 51.055115l-303.59055 0z" fill-rule="evenodd"/><path stroke="#000000" stroke-width="1.0" stroke-linejoin="round" stroke-linecap="butt" d="m9.401575 9.406824l303.59055 0l0 51.055115l-303.59055 0z" fill-rule="evenodd"/><path fill="#000000" d="m28.7922 37.47938q-3.9375 -2.015625 -6.453125 -2.671875l0 7.71875l-1.703125 0l0 -14.843752l1.484375 0q0.890625 0.0625 0.21875 0.59375l0 4.671877q3.640625 1.03125 7.34375 2.8125l-0.890625 1.71875zm-0.140625 -6.531252q-1.265625 -1.5625 -2.53125 -2.53125l0.96875 -0.734375q1.265625 0.953125 2.515625 2.515625l-0.953125 0.75zm1.78125 -1.421875q-0.96875 -1.25 -2.453125 -2.4375l0.96875 -0.75q1.25 0.890625 2.4375 2.453125l-0.953125 0.734375zm2.2929668 11.062502q4.53125 -2.453125 6.53125 -5.5625q-2.078125 -1.265625 -3.640625 -1.9375l0.890625 -1.6250019q1.640625 0.7343769 3.71875 1.9218769q1.03125 -2.140627 1.78125 -5.781252l1.78125 0.59375q0.515625 0.140625 -0.078125 0.4375q-0.96875 3.718752 -2.0 5.718752q1.78125 1.1875 2.890625 2.078125l-0.96875 1.703125q-1.484375 -1.25 -2.8125 -2.140625q-2.75 3.703125 -6.53125 6.015625l-1.5625 -1.421875zm13.875 -4.15625q7.796875 -3.265625 11.8125 -9.203127l1.40625 1.1875q0.59375 0.453125 -0.515625 0.671875q-1.421875 1.859375 -3.640625 3.781252l0 10.09375l-1.703125 0l0 -8.6875q-2.609375 2.015625 -6.09375 3.640625l-1.265625 -1.484375zm29.988281 -3.1875q-3.9375 8.15625 -13.203125 8.609375q-0.375 0.96875 -0.75 0.15625l-0.59375 -1.9375q9.65625 -0.21875 12.984375 -7.9375l1.5625 1.109375zm-10.46875 0q-2.0 -1.8593769 -3.78125 -3.046877l1.265625 -1.5625q1.5625 0.96875 3.9375 3.203125l-1.421875 1.4062519z" fill-rule="nonzero"/><path fill="#cfe2f3" d="m22.16273 201.92914l276.72443 0l0 54.960632l-276.72443 0z" fill-rule="evenodd"/><path stroke="#000000" stroke-width="1.0" stroke-linejoin="round" stroke-linecap="butt" d="m22.16273 201.92914l276.72443 0l0 54.960632l-276.72443 0z" fill-rule="evenodd"/><path fill="#000000" d="m38.709606 235.14195q-0.921875 0.765625 -1.765625 1.09375q-0.828125 0.3125 -1.796875 0.3125q-1.59375 0 -2.453125 -0.78125q-0.8593769 -0.78125 -0.8593769 -1.984375q0 -0.71875 0.3281269 -1.296875q0.328125 -0.59375 0.84375 -0.9375q0.53125 -0.359375 1.1875 -0.546875q0.46875 -0.125 1.453125 -0.25q1.984375 -0.234375 2.921875 -0.5625q0.015625 -0.34375 0.015625 -0.421875q0 -1.0 -0.46875 -1.421875q-0.625 -0.546875 -1.875 -0.546875q-1.15625 0 -1.703125 0.40625q-0.546875 0.40625 -0.8125 1.421875l-1.609375 -0.21875q0.21875 -1.015625 0.71875 -1.640625q0.5 -0.640625 1.453125 -0.984375q0.953125 -0.34375 2.1875 -0.34375q1.25 0 2.015625 0.296875q0.78125 0.28125 1.140625 0.734375q0.375 0.4375 0.515625 1.109375q0.078125 0.421875 0.078125 1.515625l0 2.1875q0 2.28125 0.109375 2.890625q0.109375 0.59375 0.40625 1.15625l-1.703125 0q-0.265625 -0.515625 -0.328125 -1.1875zm-0.140625 -3.671875q-0.890625 0.375 -2.671875 0.625q-1.015625 0.140625 -1.4375 0.328125q-0.421875 0.1875 -0.65625 0.53125q-0.21875 0.34375 -0.21875 0.78125q0 0.65625 0.5 1.09375q0.5 0.4375 1.453125 0.4375q0.9375 0 1.671875 -0.40625q0.75 -0.421875 1.09375 -1.140625q0.265625 -0.5625 0.265625 -1.640625l0 -0.609375zm10.469467 4.859375l0 -1.21875q-0.90625 1.4375 -2.703125 1.4375q-1.15625 0 -2.125 -0.640625q-0.96875 -0.640625 -1.5 -1.78125q-0.53125 -1.140625 -0.53125 -2.625q0 -1.453125 0.484375 -2.625q0.484375 -1.1875 1.4375 -1.8125q0.96875 -0.625 2.171875 -0.625q0.875 0 1.546875 0.375q0.6875 0.359375 1.109375 0.953125l0 -4.796875l1.640625 0l0 13.359375l-1.53125 0zm-5.171875 -4.828125q0 1.859375 0.78125 2.78125q0.78125 0.921875 1.84375 0.921875q1.078125 0 1.828125 -0.875q0.75 -0.890625 0.75 -2.6875q0 -1.984375 -0.765625 -2.90625q-0.765625 -0.9375 -1.890625 -0.9375q-1.078125 0 -1.8125 0.890625q-0.734375 0.890625 -0.734375 2.8125zm15.547592 4.828125l0 -1.21875q-0.90625 1.4375 -2.703125 1.4375q-1.15625 0 -2.125 -0.640625q-0.96875 -0.640625 -1.5 -1.78125q-0.53125 -1.140625 -0.53125 -2.625q0 -1.453125 0.484375 -2.625q0.484375 -1.1875 1.4375 -1.8125q0.96875 -0.625 2.171875 -0.625q0.875 0 1.546875 0.375q0.6875 0.359375 1.109375 0.953125l0 -4.796875l1.640625 0l0 13.359375l-1.53125 0zm-5.171875 -4.828125q0 1.859375 0.78125 2.78125q0.78125 0.921875 1.84375 0.921875q1.078125 0 1.828125 -0.875q0.75 -0.890625 0.75 -2.6875q0 -1.984375 -0.765625 -2.90625q-0.765625 -0.9375 -1.890625 -0.9375q-1.078125 0 -1.8125 0.890625q-0.734375 0.890625 -0.734375 2.8125zm12.891338 4.828125l0 -11.78125l-4.406246 0l0 -1.578125l10.578121 0l0 1.578125l-4.40625 0l0 11.78125l-1.765625 0zm5.1082153 -4.84375q0 -2.6875 1.484375 -3.96875q1.25 -1.078125 3.046875 -1.078125q2.0 0 3.265625 1.3125q1.265625 1.296875 1.265625 3.609375q0 1.859375 -0.5625 2.9375q-0.5625 1.0625 -1.640625 1.65625q-1.0625 0.59375 -2.328125 0.59375q-2.03125 0 -3.28125 -1.296875q-1.25 -1.3125 -1.25 -3.765625zm1.6875 0q0 1.859375 0.796875 2.796875q0.8125 0.921875 2.046875 0.921875q1.21875 0 2.03125 -0.921875q0.8125 -0.9375 0.8125 -2.84375q0 -1.796875 -0.8125 -2.71875q-0.8125 -0.921875 -2.03125 -0.921875q-1.234375 0 -2.046875 0.921875q-0.796875 0.90625 -0.796875 2.765625zm15.563217 4.84375l0 -1.21875q-0.90625 1.4375 -2.703125 1.4375q-1.15625 0 -2.125 -0.640625q-0.96875 -0.640625 -1.5 -1.78125q-0.53125 -1.140625 -0.53125 -2.625q0 -1.453125 0.484375 -2.625q0.484375 -1.1875 1.4375 -1.8125q0.96875 -0.625 2.171875 -0.625q0.875 0 1.546875 0.375q0.6875 0.359375 1.109375 0.953125l0 -4.796875l1.640625 0l0 13.359375l-1.53125 0zm-5.171875 -4.828125q0 1.859375 0.78125 2.78125q0.78125 0.921875 1.84375 0.921875q1.078125 0 1.828125 -0.875q0.75 -0.890625 0.75 -2.6875q0 -1.984375 -0.765625 -2.90625q-0.765625 -0.9375 -1.890625 -0.9375q-1.078125 0 -1.8125 0.890625q-0.734375 0.890625 -0.734375 2.8125zm8.672592 -0.015625q0 -2.6875 1.484375 -3.96875q1.25 -1.078125 3.046875 -1.078125q2.0 0 3.265625 1.3125q1.265625 1.296875 1.265625 3.609375q0 1.859375 -0.5625 2.9375q-0.5625 1.0625 -1.640625 1.65625q-1.0625 0.59375 -2.328125 0.59375q-2.03125 0 -3.28125 -1.296875q-1.25 -1.3125 -1.25 -3.765625zm1.6875 0q0 1.859375 0.796875 2.796875q0.8125 0.921875 2.046875 0.921875q1.21875 0 2.03125 -0.921875q0.8125 -0.9375 0.8125 -2.84375q0 -1.796875 -0.8125 -2.71875q-0.8125 -0.921875 -2.03125 -0.921875q-1.234375 0 -2.046875 0.921875q-0.796875 0.90625 -0.796875 2.765625z" fill-rule="nonzero"/><path fill="#000000" d="m116.400246 224.45445q3.046875 3.109375 4.15625 7.5l-1.625 0.65625q-1.34375 -4.8125 -3.859375 -7.1875l1.328125 -0.96875zm-2.21875 5.9375q0 4.296875 -1.265625 5.5625q-0.75 0.75 -1.703125 0.75q-1.421875 0 -2.828125 -1.640625l0.96875 -1.328125q1.1875 1.1875 1.78125 1.1875q0.375 0 0.671875 -0.296875q0.8125 -0.828125 0.8125 -4.53125q0 -2.078125 -0.453125 -2.53125q-0.21875 -0.21875 -0.890625 -0.21875q-0.65625 0 -1.84375 0.15625q-1.5625 5.484375 -3.71875 9.421875l-1.703125 -0.59375q2.15625 -3.34375 3.78125 -8.6875q-1.625 0.21875 -3.1875 0.375l-0.15625 -1.640625q1.34375 0 3.71875 -0.21875q0.671875 -2.296875 1.109375 -4.671875l1.5625 0.515625q0.890625 0.375 -0.078125 0.671875q-0.4375 1.5625 -0.890625 3.34375q0.890625 -0.15625 1.859375 -0.15625q1.03125 0 1.5625 0.515625q0.890625 0.890625 0.890625 4.015625zm4.15625 -9.796875q1.328125 0.734375 2.96875 2.078125l-0.890625 0.890625q-1.640625 -1.265625 -2.96875 -2.078125l0.890625 -0.890625zm0.515625 4.75q-1.703125 -1.40625 -2.890625 -2.15625l0.890625 -0.890625q1.328125 0.75 2.96875 2.078125l-0.96875 0.96875zm17.812508 0.4375l0.140625 -0.359375l1.34375 1.03125q0.4375 0.375 -0.296875 0.515625q-0.8125 2.609375 -2.15625 4.390625q1.640625 1.328125 3.640625 2.0l-0.75 1.625q-2.0 -0.734375 -3.921875 -2.4375q-1.859375 1.703125 -3.796875 2.671875l-0.890625 -1.421875q1.5625 -0.734375 3.5625 -2.296875q-1.546875 -2.21875 -2.078125 -4.296875l-1.109375 0l0 2.140625q0 3.5625 -1.78125 5.34375l-0.9687576 -1.484375q1.2656326 -1.03125 1.2656326 -4.0l0 -7.421875l9.875 0l0 1.625l-8.390625 0l0 2.375l6.3125 0zm3.109375 10.171875l-0.296875 1.421875l-9.046875 0q-2.6718826 0 -4.2343826 -1.9375q-0.671875 1.109375 -2.375 2.15625l-0.96875 -1.640625q1.640625 -0.671875 2.53125 -1.484375l0 -4.53125l-2.453125 0l0 -1.625l3.9375 0l0 6.078125q1.1875076 1.5625 3.4843826 1.5625l9.421875 0zm-14.906258 -14.546875q1.78125 1.1875 2.734375 2.75l-1.1875 1.1875q-1.109375 -1.5625 -2.671875 -2.75l1.125 -1.1875zm8.015633 5.796875q0.65625 2.0 1.703125 3.109375q1.109375 -1.5625 1.5625 -3.109375l-3.265625 0zm16.984375 5.265625q-0.890625 0.515625 -1.84375 0.515625q-1.265625 0 -1.9375 -0.671875q-0.890625 -0.890625 -0.890625 -2.0q0 -1.1875 0.890625 -2.078125q0.890625 -0.890625 2.234375 -0.890625q0.890625 0 1.703125 0.21875l0 -1.625l-8.171875 0.515625l-0.296875 -1.5625l8.46875 -0.359375l0 -3.5l1.328125 0q0.828125 0.15625 0.15625 0.59375l0 2.828125l6.3125 -0.453125l0 1.5625l-6.3125 0.296875l0 2.828125q0.296875 1.328125 0.296875 2.96875q-0.078125 3.78125 -4.234375 6.375l-1.40625 -1.03125q3.703125 -2.15625 3.703125 -4.53125zm-1.40625 -3.859375q-0.8125 0 -1.328125 0.515625q-0.453125 0.453125 -0.453125 1.1875q0 0.671875 0.375 1.046875q0.375 0.359375 1.1875 0.359375q0.8125 0 1.328125 -0.515625q0.453125 -0.4375 0.453125 -1.109375q0 -0.671875 -0.453125 -1.109375q-0.359375 -0.375 -1.109375 -0.375zm27.914062 9.203125q-4.984375 -1.1875 -6.6875 -4.828125q-0.890625 3.796875 -6.078125 5.046875l-0.453125 -1.40625q4.671875 -1.046875 5.265625 -4.234375l-4.890625 0q-0.21875 3.1875 -2.234375 5.28125l-1.03125 -1.1875q1.78125 -1.71875 1.78125 -4.6875l0 -7.265625l13.140625 0l0 4.75l-1.484375 0l0 -0.453125l-10.171875 0l0 2.15625l5.046875 0l0 -1.703125l1.40625 0q0.59375 0.0625 0.078125 0.4375l0 1.265625l6.3125 0l0 1.40625l-5.578125 0q1.046875 2.75 6.171875 3.859375l-0.59375 1.5625zm-0.296875 -15.953125l0 1.40625l-14.921875 0l0 -1.40625l14.921875 0zm-2.375 4.078125l-10.171875 0l0 1.484375l10.171875 0l0 -1.484375zm14.546875 3.484375q0 -5.046875 -0.296875 -7.796875l1.484375 0q0.8125 0.078125 0.140625 0.59375q0.21875 2.375 0.21875 7.28125q0 5.5625 -5.265625 8.390625l-1.265625 -1.265625q4.984375 -2.375 4.984375 -7.203125zm-5.046875 2.453125q-0.671875 0.515625 -1.484375 0.515625q-0.53125 0 -0.96875 -0.4375q-0.515625 -0.53125 -0.515625 -4.453125q0 -2.96875 0.296875 -5.421875l1.625 0q0.59375 0.21875 0 0.515625q-0.375 1.78125 -0.375 4.90625q0 3.1875 0.296875 3.1875q0.234375 0 0.59375 -0.296875q0.53125 -0.453125 1.71875 -2.0l1.109375 1.109375q-1.265625 1.5625 -2.296875 2.375zm14.238281 -10.25q-0.296875 1.9375 -1.03125 4.234375q0.671875 0.078125 0.21875 0.515625l0 11.515625l-1.484375 0l0 -9.203125q-0.515625 0.8125 -0.96875 1.328125l-1.1875 -0.890625q2.53125 -3.046875 2.96875 -8.234375l1.71875 0.375q0.296875 0.296875 -0.234375 0.359375zm7.28125 2.75l0 1.40625l3.640625 0l0 8.765625l-6.90625 0l0 -8.765625l1.78125 0l0 -1.40625l-5.34375 0l0 -1.40625l5.34375 0l0 -2.078125l1.40625 0q0.59375 0.078125 0.078125 0.4375l0 1.640625l4.828125 0l0 1.40625l-4.828125 0zm-2.0 2.59375l0 1.34375l4.375 0l0 -1.34375l-4.375 0zm0 2.53125l0 1.265625l4.375 0l0 -1.265625l-4.375 0zm0 2.453125l0 1.40625l4.375 0l0 -1.40625l-4.375 0zm-4.3125 5.9375l0 -11.875l1.40625 0q0.59375 0.0625 0.078125 0.4375l0 9.359375l10.25 0l0 1.40625l-10.25 0l0 0.671875l-1.484375 0zm23.015625 -12.03125q-1.265625 7.421875 -3.046875 9.203125q-0.96875 0.96875 -2.0 0.96875q-1.1875 0 -1.859375 -0.671875q-1.78125 -1.78125 -1.78125 -4.453125q0 -3.265625 2.296875 -5.5625q2.53125 -2.53125 6.15625 -2.53125q3.265625 0 5.125 1.859375q2.078125 2.078125 2.078125 4.90625q0 3.03125 -1.921875 4.96875q-1.265625 1.265625 -3.859375 2.453125l-1.5625 -1.5625q2.59375 -0.8125 4.078125 -2.296875q1.40625 -1.421875 1.40625 -3.421875q0 -2.375 -1.546875 -3.9375q-1.5625 -1.546875 -4.90625 -1.40625l1.34375 0.671875q0.890625 0.375 0 0.8125zm-1.71875 -1.40625q-1.921875 0.4375 -3.328125 1.859375q-1.9375 1.921875 -1.9375 4.75q0 1.703125 1.109375 2.8125q0.234375 0.21875 0.671875 0.21875q0.453125 0 0.96875 -0.515625q1.703125 -1.703125 2.515625 -9.125zm20.640625 6.3125q0.59375 0.0625 0.078125 0.4375l0 1.109375l5.34375 0l0 1.421875l-5.34375 0l0 2.296875l7.34375 0l0 1.40625l-15.953125 0l0 -1.40625l7.125 0l0 -2.296875l-5.203125 0l0 -1.421875l5.203125 0l0 -1.546875l1.40625 0zm-5.859375 -4.09375l-2.828125 0l0 -1.1875l2.828125 0l0 -2.671875l-2.15625 0l0 -1.1875l8.453125 0l0 1.1875l-1.921875 0l0 2.671875l2.453125 0l0 1.1875l-2.453125 0l0 3.9375l-1.265625 0l0 -3.9375l-1.859375 0l0 0.59375q0 3.125 -3.703125 4.453125l-0.59375 -1.40625q3.046875 -0.890625 3.046875 -3.1875l0 -0.453125zm12.46875 -5.265625q0.59375 0.078125 0.0625 0.453125l0 7.71875q0 1.1875 -1.1875 1.1875l-1.484375 0l-0.21875 -1.421875l1.109375 0q0.296875 0 0.296875 -0.296875l0 -7.640625l1.421875 0zm-9.359375 4.078125l0 -2.671875l-1.859375 0l0 2.671875l1.859375 0zm5.9375 -2.8125q0.59375 0.078125 0.078125 0.4375l0 5.5l-1.484375 0l0 -5.9375l1.40625 0z" fill-rule="nonzero"/><path fill="#cfe2f3" d="m22.16273 269.64304l276.72443 0l0 54.960632l-276.72443 0z" fill-rule="evenodd"/><path stroke="#000000" stroke-width="1.0" stroke-linejoin="round" stroke-linecap="butt" d="m22.16273 269.64304l276.72443 0l0 54.960632l-276.72443 0z" fill-rule="evenodd"/><path fill="#000000" d="m43.928356 292.46524q3.71875 4.671875 5.265625 9.875l-2.0 0.65625q-1.859375 -5.859375 -4.828125 -9.34375l1.5625 -1.1875zm-5.640625 1.703125q0.59375 0.375 -0.140625 0.671875q-1.34375 4.671875 -4.3125 8.53125l-1.703125 -1.109375q3.265625 -3.9375 4.375 -8.90625l1.78125 0.8125zm8.90625 -5.78125q0.96875 0.8125 2.375 2.296875l-0.96875 0.890625q-1.328125 -1.484375 -2.375 -2.375l0.96875 -0.8125zm-1.78125 1.109375q1.109375 1.03125 2.375 2.515625l-1.109375 0.828125q-1.109375 -1.484375 -2.296875 -2.53125l1.03125 -0.8125zm16.25 8.015625q0 5.5625 -5.1875 8.015625l-1.484375 -1.265625q4.890625 -2.21875 4.96875 -6.828125l0 -7.421875l1.5625 0q0.734375 0.15625 0.140625 0.59375l0 6.90625zm-7.640625 1.625l-1.703125 0l0 -8.375l1.625 0q0.75 0.0625 0.078125 0.59375l0 7.78125zm18.847652 -2.515625l-7.421875 0l0 -1.640625l15.21875 0l0 1.640625l-6.078125 0l0 0.96875q0 4.671875 -3.34375 7.71875l-1.484375 -1.109375q3.109375 -2.453125 3.109375 -6.609375l0 -0.96875zm-4.75 -4.53125l0 -1.625l9.140625 0l0 1.625l-9.140625 0zm10.09375 -3.046875q0.96875 0.96875 2.078125 2.609375l-1.03125 0.734375q-1.046875 -1.484375 -2.078125 -2.671875l1.03125 -0.671875zm1.78125 -0.953125q0.96875 1.03125 2.078125 2.515625l-1.03125 0.75q-1.1875 -1.640625 -2.078125 -2.53125l1.03125 -0.734375zm3.4921875 9.859375l0 -1.625l16.546875 0l0 1.625l-16.546875 0zm19.898438 4.90625q8.078125 -1.78125 12.171875 -8.390625l1.328125 1.34375q-3.78125 6.078125 -11.71875 8.609375q-0.234375 0.890625 -0.75 0.078125l-1.03125 -1.640625zm-0.53125 -8.984375q1.859375 0.96875 3.796875 2.375l-1.1875 1.5625q-2.234375 -1.640625 -3.71875 -2.375l1.109375 -1.5625zm2.078125 -4.375q2.015625 1.109375 3.796875 2.375l-1.046875 1.5625q-2.0 -1.421875 -3.703125 -2.375l0.953125 -1.5625zm13.8828125 14.546875l0 -1.40625l7.578125 0l0 -3.125l-7.125 0l0 -1.40625l7.125 0l0 -2.96875l-7.578125 0l0 -1.40625l9.0625 0l0 11.125l-1.484375 0l0 -0.8125l-7.578125 0zm26.496101 -8.609375q-3.9375 8.15625 -13.203125 8.609375q-0.375 0.96875 -0.75 0.15625l-0.59375 -1.9375q9.65625 -0.21875 12.984375 -7.9375l1.5625 1.109375zm-10.46875 0q-2.0 -1.859375 -3.78125 -3.046875l1.265625 -1.5625q1.5625 0.96875 3.9375 3.203125l-1.421875 1.40625zm25.386719 7.34375l-1.703125 0l0 -0.8125l-8.234375 0l0 1.1875l-1.71875 0l0 -11.578125l11.65625 0l0 11.203125zm-9.9375 -9.578125l0 7.125l8.234375 0l0 -7.125l-8.234375 0zm28.417969 2.609375q-3.78125 6.078125 -11.71875 8.609375q-0.234375 0.890625 -0.75 0.078125l-1.03125 -1.640625q8.078125 -1.78125 12.171875 -8.390625l1.328125 1.34375zm-11.421875 2.0q-2.234375 -1.640625 -3.71875 -2.375l1.109375 -1.5625q1.859375 0.96875 3.796875 2.375l-1.1875 1.5625zm2.21875 -4.375q-2.0 -1.421875 -3.703125 -2.375l0.953125 -1.5625q2.015625 1.109375 3.796875 2.375l-1.046875 1.5625zm6.15625 -5.046875q1.265625 0.953125 2.53125 2.296875l-0.96875 0.96875q-1.328125 -1.484375 -2.515625 -2.375l0.953125 -0.890625zm-1.78125 1.25q1.265625 1.046875 2.53125 2.375l-0.96875 0.890625q-1.265625 -1.328125 -2.59375 -2.4375l1.03125 -0.828125zm18.632812 5.34375q-0.515625 4.828125 -2.671875 6.984375q-2.15625 2.15625 -5.640625 3.421875l-0.96875 -1.421875q3.421875 -1.109375 5.34375 -3.046875q2.078125 -2.078125 2.375 -7.046875l1.5625 0.515625q0.671875 0.234375 0 0.59375zm-6.3125 2.671875q-0.890625 -2.0 -1.78125 -3.328125l1.421875 -0.75q1.109375 1.40625 1.921875 3.34375l-1.5625 0.734375zm-3.78125 1.125q-0.890625 -2.078125 -1.859375 -3.5l1.484375 -0.734375q1.046875 1.40625 1.859375 3.40625l-1.484375 0.828125zm25.09375 -4.90625q-1.421875 8.09375 -9.28125 11.578125l-1.34375 -1.40625q7.28125 -2.96875 8.765625 -10.25l-5.9375 0q-1.703125 2.828125 -3.5625 4.53125l-1.484375 -0.96875q3.859375 -3.484375 4.96875 -8.15625l1.703125 0.59375q0.453125 0.21875 -0.140625 0.4375q-0.296875 0.96875 -0.8125 1.9375l5.34375 0l0.65625 -0.375l1.34375 1.34375q0.515625 0.515625 -0.21875 0.734375z" fill-rule="nonzero"/><path fill="#000000" fill-opacity="0.0" d="m9.401575 342.16272l303.59055 0l0 42.015747l-303.59055 0z" fill-rule="evenodd"/><path fill="#000000" d="m248.24994 360.6921q0.828125 0.15625 0.15625 0.59375l0 4.3125q1.859375 0.59375 3.859375 1.625l-0.890625 1.40625q-1.640625 -0.953125 -2.96875 -1.40625q-0.21875 1.5625 -0.96875 2.3125q-0.890625 0.890625 -2.453125 0.890625q-2.078125 0 -2.890625 -0.828125q-0.734375 -0.734375 -0.734375 -1.921875q0 -0.96875 0.734375 -1.71875q0.96875 -0.953125 2.828125 -0.953125q1.25 0 2.0 0.21875l0 -4.53125l1.328125 0zm-7.9375 -1.78125q-1.1875 0.15625 -2.96875 0.15625l-0.21875 -1.5625q1.859375 0 3.703125 -0.15625q0.375 -1.328125 0.890625 -3.5625l1.34375 0.453125q0.734375 0.296875 0 0.59375l-0.671875 2.375q1.265625 -0.15625 2.59375 -0.515625l0.375 1.546875q-2.078125 0.453125 -3.40625 0.53125q-1.1875 3.78125 -3.5 8.234375l-1.484375 -0.75q2.3125 -4.078125 3.34375 -7.34375zm7.125 -2.21875q2.078125 0.65625 4.96875 1.78125l-0.65625 1.546875q-3.125 -1.328125 -4.90625 -1.84375l0.59375 -1.484375zm-0.515625 9.9375q-0.890625 -0.296875 -2.0 -0.296875q-1.1875 0 -1.640625 0.453125q-0.375 0.359375 -0.375 0.890625q0 0.515625 0.296875 0.8125q0.453125 0.4375 1.5625 0.4375q1.046875 0 1.484375 -0.4375q0.671875 -0.671875 0.671875 -1.859375zm19.957031 -5.640625q-7.046875 1.265625 -9.421875 3.640625q-0.8125 0.8125 -0.8125 1.703125q0 0.671875 0.515625 1.1875q0.515625 0.515625 2.15625 0.515625l7.125 0l0 1.640625l-7.203125 0q-2.453125 0 -3.40625 -0.96875q-0.96875 -0.96875 -0.96875 -2.21875q0 -1.640625 1.1875 -2.828125q0.890625 -0.890625 2.96875 -2.078125q-0.453125 -1.109375 -0.515625 -2.453125l-0.296875 -4.890625l1.546875 0q0.828125 0.140625 0.15625 0.59375l0.140625 3.5625q0.078125 1.5625 0.53125 2.515625q2.078125 -0.890625 5.5625 -1.84375l0.734375 1.921875zm-1.921875 -5.78125q1.703125 1.03125 2.890625 1.84375l-0.734375 0.96875q-1.34375 -0.890625 -2.90625 -1.859375l0.75 -0.953125zm1.625 -1.484375q1.640625 1.03125 2.90625 1.84375l-0.75 0.96875q-1.5625 -1.03125 -2.890625 -1.859375l0.734375 -0.953125zm15.5859375 6.96875q0.828125 0.15625 0.15625 0.59375l0 4.3125q1.859375 0.59375 3.859375 1.625l-0.890625 1.40625q-1.640625 -0.953125 -2.96875 -1.40625q-0.21875 1.5625 -0.96875 2.3125q-0.890625 0.890625 -2.453125 0.890625q-2.078125 0 -2.890625 -0.828125q-0.734375 -0.734375 -0.734375 -1.921875q0 -0.96875 0.734375 -1.71875q0.96875 -0.953125 2.828125 -0.953125q1.25 0 2.0 0.21875l0 -4.53125l1.328125 0zm-7.9375 -1.78125q-1.1875 0.15625 -2.96875 0.15625l-0.21875 -1.5625q1.859375 0 3.703125 -0.15625q0.375 -1.328125 0.890625 -3.5625l1.34375 0.453125q0.734375 0.296875 0 0.59375l-0.671875 2.375q1.265625 -0.15625 2.59375 -0.515625l0.375 1.546875q-2.078125 0.453125 -3.40625 0.53125q-1.1875 3.78125 -3.5 8.234375l-1.484375 -0.75q2.3125 -4.078125 3.34375 -7.34375zm7.125 -2.21875q2.078125 0.65625 4.96875 1.78125l-0.65625 1.546875q-3.125 -1.328125 -4.90625 -1.84375l0.59375 -1.484375zm-0.515625 9.9375q-0.890625 -0.296875 -2.0 -0.296875q-1.1875 0 -1.640625 0.453125q-0.375 0.359375 -0.375 0.890625q0 0.515625 0.296875 0.8125q0.453125 0.4375 1.5625 0.4375q1.046875 0 1.484375 -0.4375q0.671875 -0.671875 0.671875 -1.859375zm19.957031 -5.640625q-7.046875 1.265625 -9.421875 3.640625q-0.8125 0.8125 -0.8125 1.703125q0 0.671875 0.515625 1.1875q0.515625 0.515625 2.15625 0.515625l7.125 0l0 1.640625l-7.203125 0q-2.453125 0 -3.40625 -0.96875q-0.96875 -0.96875 -0.96875 -2.21875q0 -1.640625 1.1875 -2.828125q0.890625 -0.890625 2.96875 -2.078125q-0.453125 -1.109375 -0.515625 -2.453125l-0.296875 -4.890625l1.546875 0q0.828125 0.140625 0.15625 0.59375l0.140625 3.5625q0.078125 1.5625 0.53125 2.515625q2.078125 -0.890625 5.5625 -1.84375l0.734375 1.921875zm-1.921875 -5.78125q1.703125 1.03125 2.890625 1.84375l-0.734375 0.96875q-1.34375 -0.890625 -2.90625 -1.859375l0.75 -0.953125zm1.625 -1.484375q1.640625 1.03125 2.90625 1.84375l-0.75 0.96875q-1.5625 -1.03125 -2.890625 -1.859375l0.734375 -0.953125z" fill-rule="nonzero"/><path fill="#d9ead3" d="m337.04462 9.406824l412.50397 0l0 543.3701l-412.50397 0z" fill-rule="evenodd"/><path stroke="#000000" stroke-width="1.0" stroke-linejoin="round" stroke-linecap="butt" d="m337.04462 9.406824l412.50397 0l0 543.3701l-412.50397 0z" fill-rule="evenodd"/><path fill="#d9ead3" d="m337.04462 9.406824l412.50397 0l0 51.055115l-412.50397 0z" fill-rule="evenodd"/><path stroke="#000000" stroke-width="1.0" stroke-linejoin="round" stroke-linecap="butt" d="m337.04462 9.406824l412.50397 0l0 51.055115l-412.50397 0z" fill-rule="evenodd"/><path fill="#000000" d="m356.43524 37.47938q-3.9375 -2.015625 -6.453125 -2.671875l0 7.71875l-1.703125 0l0 -14.843752l1.484375 0q0.890625 0.0625 0.21875 0.59375l0 4.671877q3.640625 1.03125 7.34375 2.8125l-0.890625 1.71875zm-0.140625 -6.531252q-1.265625 -1.5625 -2.53125 -2.53125l0.96875 -0.734375q1.265625 0.953125 2.515625 2.515625l-0.953125 0.75zm1.78125 -1.421875q-0.96875 -1.25 -2.453125 -2.4375l0.96875 -0.75q1.25 0.890625 2.4375 2.453125l-0.953125 0.734375zm2.2929688 11.062502q4.53125 -2.453125 6.53125 -5.5625q-2.078125 -1.265625 -3.640625 -1.9375l0.890625 -1.6250019q1.640625 0.7343769 3.71875 1.9218769q1.03125 -2.140627 1.78125 -5.781252l1.78125 0.59375q0.515625 0.140625 -0.078125 0.4375q-0.96875 3.718752 -2.0 5.718752q1.78125 1.1875 2.890625 2.078125l-0.96875 1.703125q-1.484375 -1.25 -2.8125 -2.140625q-2.75 3.703125 -6.53125 6.015625l-1.5625 -1.421875zm13.875 -4.15625q7.796875 -3.265625 11.8125 -9.203127l1.40625 1.1875q0.59375 0.453125 -0.515625 0.671875q-1.421875 1.859375 -3.640625 3.781252l0 10.09375l-1.703125 0l0 -8.6875q-2.609375 2.015625 -6.09375 3.640625l-1.265625 -1.484375zm29.988281 -3.1875q-3.9375 8.15625 -13.203125 8.609375q-0.375 0.96875 -0.75 0.15625l-0.59375 -1.9375q9.65625 -0.21875 12.984375 -7.9375l1.5625 1.109375zm-10.46875 0q-2.0 -1.8593769 -3.78125 -3.046877l1.265625 -1.5625q1.5625 0.96875 3.9375 3.203125l-1.421875 1.4062519zm25.386719 -5.343752l1.40625 0.140625q0.59375 0.078125 0.078125 0.453125l0 5.343752q0 2.59375 -0.890625 4.296875l3.5625 2.90625l-1.109375 1.484375l-3.125 -3.125q-1.921875 2.671875 -6.96875 3.859375l-0.59375 -1.625q3.859375 -0.59375 5.71875 -2.453125q1.921875 -1.9375 1.921875 -5.859375l0 -5.421877zm-2.59375 8.453127q-2.375 1.9375 -8.3125 5.421875q-0.15625 0.59375 -0.515625 0.078125l-0.75 -1.5625q0.453125 -0.140625 1.859375 -0.890625l-0.453125 -11.062502l1.5625 0.15625q0.59375 0.078125 0.078125 0.4375l0.375 9.734377q3.328125 -1.9375 5.40625 -3.5625l0.75 1.25zm-3.125 -7.640627q1.484375 1.046875 2.75 2.75l-1.484375 1.1093769q-1.328125 -1.8593769 -2.515625 -2.671877l1.25 -1.1875zm12.625 12.843752q2.453125 -1.5625 4.296875 -4.90625q-1.484375 -1.328125 -2.4375 -1.921875q-0.53125 1.265625 -1.421875 2.296875l-1.328125 -0.96875q2.453125 -3.03125 3.1875 -8.156252l1.5625 0.4375q0.375 0.296875 -0.15625 0.53125l-0.296875 1.40625l2.828125 0l0.296875 -0.296875l1.03125 0.890625q0.234375 0.21875 -0.140625 0.4375q-1.109375 7.875002 -6.453125 11.593752l-0.96875 -1.34375zm14.921875 -3.125q-2.15625 -1.484375 -3.203125 -2.4375l0 7.203125l-1.484375 0l0 -8.6875q-1.40625 -1.78125 -2.515625 -3.718752l1.1875 -0.890625q0.671875 1.1875 1.328125 2.078125l0 -5.125l1.421875 0q0.59375 0.078125 0.0625 0.453125l0 6.375002q0.53125 1.046875 4.3125 3.265625l-1.109375 1.484375zm-10.03125 -3.265625q0.671875 -1.703125 0.96875 -3.484377l-2.8125 0l-0.59375 1.6406269q0.953125 0.59375 2.4375 1.84375z" fill-rule="nonzero"/><path fill="#000000" fill-opacity="0.0" d="m445.958 510.76117l303.59058 0l0 42.015747l-303.59058 0z" fill-rule="evenodd"/><path fill="#000000" d="m684.80634 529.2905q0.828125 0.15625 0.15625 0.59375l0 4.3125q1.859375 0.59375 3.859375 1.625l-0.890625 1.40625q-1.640625 -0.953125 -2.96875 -1.40625q-0.21875 1.5625 -0.96875 2.3125q-0.890625 0.890625 -2.453125 0.890625q-2.078125 0 -2.890625 -0.828125q-0.734375 -0.734375 -0.734375 -1.921875q0 -0.96875 0.734375 -1.71875q0.96875 -0.953125 2.828125 -0.953125q1.25 0 2.0 0.21875l0 -4.53125l1.328125 0zm-7.9375 -1.78125q-1.1875 0.15625 -2.96875 0.15625l-0.21875 -1.5625q1.859375 0 3.703125 -0.15625q0.375 -1.328125 0.890625 -3.5625l1.34375 0.453125q0.734375 0.296875 0 0.59375l-0.671875 2.375q1.265625 -0.15625 2.59375 -0.515625l0.375 1.546875q-2.078125 0.453125 -3.40625 0.53125q-1.1875 3.78125 -3.5 8.234375l-1.484375 -0.75q2.3125 -4.078125 3.34375 -7.34375zm7.125 -2.21875q2.078125 0.65625 4.96875 1.78125l-0.65625 1.546875q-3.125 -1.328125 -4.90625 -1.84375l0.59375 -1.484375zm-0.515625 9.9375q-0.890625 -0.296875 -2.0 -0.296875q-1.1875 0 -1.640625 0.453125q-0.375 0.359375 -0.375 0.890625q0 0.515625 0.296875 0.8125q0.453125 0.4375 1.5625 0.4375q1.046875 0 1.484375 -0.4375q0.671875 -0.671875 0.671875 -1.859375zm19.957031 -5.640625q-7.046875 1.265625 -9.421875 3.640625q-0.8125 0.8125 -0.8125 1.703125q0 0.671875 0.515625 1.1875q0.515625 0.515625 2.15625 0.515625l7.125 0l0 1.640625l-7.203125 0q-2.453125 0 -3.40625 -0.96875q-0.96875 -0.96875 -0.96875 -2.21875q0 -1.640625 1.1875 -2.828125q0.890625 -0.890625 2.96875 -2.078125q-0.453125 -1.109375 -0.515625 -2.453125l-0.296875 -4.890625l1.546875 0q0.828125 0.140625 0.15625 0.59375l0.140625 3.5625q0.078125 1.5625 0.53125 2.515625q2.078125 -0.890625 5.5625 -1.84375l0.734375 1.921875zm-1.921875 -5.78125q1.703125 1.03125 2.890625 1.84375l-0.734375 0.96875q-1.34375 -0.890625 -2.90625 -1.859375l0.75 -0.953125zm1.625 -1.484375q1.640625 1.03125 2.90625 1.84375l-0.75 0.96875q-1.5625 -1.03125 -2.890625 -1.859375l0.734375 -0.953125zm15.5859375 6.96875q0.828125 0.15625 0.15625 0.59375l0 4.3125q1.859375 0.59375 3.859375 1.625l-0.890625 1.40625q-1.640625 -0.953125 -2.96875 -1.40625q-0.21875 1.5625 -0.96875 2.3125q-0.890625 0.890625 -2.453125 0.890625q-2.078125 0 -2.890625 -0.828125q-0.734375 -0.734375 -0.734375 -1.921875q0 -0.96875 0.734375 -1.71875q0.96875 -0.953125 2.828125 -0.953125q1.25 0 2.0 0.21875l0 -4.53125l1.328125 0zm-7.9375 -1.78125q-1.1875 0.15625 -2.96875 0.15625l-0.21875 -1.5625q1.859375 0 3.703125 -0.15625q0.375 -1.328125 0.890625 -3.5625l1.34375 0.453125q0.734375 0.296875 0 0.59375l-0.671875 2.375q1.265625 -0.15625 2.59375 -0.515625l0.375 1.546875q-2.078125 0.453125 -3.40625 0.53125q-1.1875 3.78125 -3.5 8.234375l-1.484375 -0.75q2.3125 -4.078125 3.34375 -7.34375zm7.125 -2.21875q2.078125 0.65625 4.96875 1.78125l-0.65625 1.546875q-3.125 -1.328125 -4.90625 -1.84375l0.59375 -1.484375zm-0.515625 9.9375q-0.890625 -0.296875 -2.0 -0.296875q-1.1875 0 -1.640625 0.453125q-0.375 0.359375 -0.375 0.890625q0 0.515625 0.296875 0.8125q0.453125 0.4375 1.5625 0.4375q1.046875 0 1.484375 -0.4375q0.671875 -0.671875 0.671875 -1.859375zm19.957031 -5.640625q-7.046875 1.265625 -9.421875 3.640625q-0.8125 0.8125 -0.8125 1.703125q0 0.671875 0.515625 1.1875q0.515625 0.515625 2.15625 0.515625l7.125 0l0 1.640625l-7.203125 0q-2.453125 0 -3.40625 -0.96875q-0.96875 -0.96875 -0.96875 -2.21875q0 -1.640625 1.1875 -2.828125q0.890625 -0.890625 2.96875 -2.078125q-0.453125 -1.109375 -0.515625 -2.453125l-0.296875 -4.890625l1.546875 0q0.828125 0.140625 0.15625 0.59375l0.140625 3.5625q0.078125 1.5625 0.53125 2.515625q2.078125 -0.890625 5.5625 -1.84375l0.734375 1.921875zm-1.921875 -5.78125q1.703125 1.03125 2.890625 1.84375l-0.734375 0.96875q-1.34375 -0.890625 -2.90625 -1.859375l0.75 -0.953125zm1.625 -1.484375q1.640625 1.03125 2.90625 1.84375l-0.75 0.96875q-1.5625 -1.03125 -2.890625 -1.859375l0.734375 -0.953125z" fill-rule="nonzero"/><path fill="#d9ead3" d="m351.80054 73.215225l380.0315 0l0 205.6378l-380.0315 0z" fill-rule="evenodd"/><path stroke="#000000" stroke-width="1.0" stroke-linejoin="round" stroke-linecap="butt" d="m351.80054 73.215225l380.0315 0l0 205.6378l-380.0315 0z" fill-rule="evenodd"/><path fill="#d9ead3" d="m351.80054 73.215225l380.0315 0l0 38.771652l-380.0315 0z" fill-rule="evenodd"/><path stroke="#000000" stroke-width="1.0" stroke-linejoin="round" stroke-linecap="butt" d="m351.80054 73.215225l380.0315 0l0 38.771652l-380.0315 0z" fill-rule="evenodd"/><path fill="#000000" d="m363.17554 98.33355q9.28125 -2.15625 9.71875 -9.875l-11.125 0l0 -1.625l11.28125 0l1.03125 -0.234375l0.828125 0.75q-0.296875 9.875 -10.390625 12.625l-1.34375 -1.640625zm16.851562 -0.515625q6.828125 -1.265625 9.9375 -6.90625l1.265625 1.265625q-3.5625 6.234375 -11.875 7.640625l-1.1875 -0.890625l0.15625 -0.453125l0 -12.3125l1.625 0q0.671875 0.078125 0.078125 0.515625l0 11.140625zm13.1328125 -4.390625l0 -1.625l16.546875 0l0 1.625l-16.546875 0zm18.335938 3.421875l3.109375 -0.078125q2.671875 -5.78125 4.09375 -11.796875l1.703125 0.59375q0.671875 0.4375 -0.15625 0.671875q-1.40625 5.265625 -3.78125 10.390625l7.71875 -0.375q-1.5625 -2.078125 -2.453125 -3.046875l1.484375 -1.03125q2.53125 2.734375 4.828125 6.453125l-1.625 1.109375l-1.1875 -1.921875l-12.46875 0.953125q-0.453125 0.75 -0.671875 0l-0.59375 -1.921875zm31.242188 -1.484375q-1.625 2.96875 -6.15625 4.96875l-1.40625 -1.484375q4.375 -1.625 5.859375 -4.234375q1.40625 -2.4375 1.40625 -6.59375l-9.421875 0l0 4.890625l-1.703125 0l0 -6.53125l13.0625 0q0 6.015625 -1.640625 8.984375zm5.1210938 -1.9375l0 -1.625l16.546875 0l0 1.625l-16.546875 0zm31.179688 -4.078125q-1.421875 8.09375 -9.28125 11.578125l-1.34375 -1.40625q7.28125 -2.96875 8.765625 -10.25l-5.9375 0q-1.703125 2.828125 -3.5625 4.53125l-1.484375 -0.96875q3.859375 -3.484375 4.96875 -8.15625l1.703125 0.59375q0.453125 0.21875 -0.140625 0.4375q-0.296875 0.96875 -0.8125 1.9375l5.34375 0l0.65625 -0.375l1.34375 1.34375q0.515625 0.515625 -0.21875 0.734375z" fill-rule="nonzero"/><path fill="#d9ead3" d="m351.80054 287.45932l380.0315 0l0 209.5748l-380.0315 0z" fill-rule="evenodd"/><path stroke="#000000" stroke-width="1.0" stroke-linejoin="round" stroke-linecap="butt" d="m351.80054 287.45932l380.0315 0l0 209.5748l-380.0315 0z" fill-rule="evenodd"/><path fill="#d9ead3" d="m351.80054 287.45932l380.0315 0l0 38.771637l-380.0315 0z" fill-rule="evenodd"/><path stroke="#000000" stroke-width="1.0" stroke-linejoin="round" stroke-linecap="butt" d="m351.80054 287.45932l380.0315 0l0 38.771637l-380.0315 0z" fill-rule="evenodd"/><path fill="#000000" d="m361.9099 308.34326q7.796875 -3.265625 11.8125 -9.203125l1.40625 1.1875q0.59375 0.453125 -0.515625 0.671875q-1.421875 1.859375 -3.640625 3.78125l0 10.09375l-1.703125 0l0 -8.6875q-2.609375 2.015625 -6.09375 3.640625l-1.265625 -1.484375zm29.988281 -3.1875q-3.9375 8.15625 -13.203125 8.609375q-0.375 0.96875 -0.75 0.15625l-0.59375 -1.9375q9.65625 -0.21875 12.984375 -7.9375l1.5625 1.109375zm-10.46875 0q-2.0 -1.859375 -3.78125 -3.046875l1.265625 -1.5625q1.5625 0.96875 3.9375 3.203125l-1.421875 1.40625zm13.808594 7.421875q9.28125 -2.15625 9.71875 -9.875l-11.125 0l0 -1.625l11.28125 0l1.03125 -0.234375l0.828125 0.75q-0.296875 9.875 -10.390625 12.625l-1.34375 -1.640625zm16.992188 1.265625q7.203125 -1.859375 8.09375 -7.796875l-11.28125 0l0 -1.640625l11.359375 0l0.671875 -0.21875l1.328125 0.8125q0.453125 0.375 -0.140625 0.671875q-1.1875 7.421875 -8.6875 9.65625l-1.34375 -1.484375zm8.390625 -12.03125l-10.234375 0l0 -1.625l10.234375 0l0 1.625zm12.847656 5.203125q3.1875 2.4375 6.296875 5.640625l-1.484375 1.265625q-3.109375 -3.28125 -6.0 -5.5q-2.90625 3.109375 -6.609375 5.5625l-1.40625 -1.265625q7.859375 -5.109375 10.09375 -10.234375l-8.09375 0.515625l-0.21875 -1.78125l8.609375 -0.375l0.890625 -0.21875l1.1875 1.1875q0.515625 0.515625 -0.296875 0.671875q-1.421875 2.453125 -2.96875 4.53125zm11.269531 -2.15625q3.640625 1.03125 7.359375 2.8125l-0.890625 1.71875q-3.9375 -2.015625 -6.46875 -2.671875l0 7.71875l-1.703125 0l0 -14.84375l1.484375 0q0.890625 0.0625 0.21875 0.59375l0 4.671875zm12.3203125 8.984375q7.203125 -1.859375 8.09375 -7.796875l-11.28125 0l0 -1.640625l11.359375 0l0.671875 -0.21875l1.328125 0.8125q0.453125 0.375 -0.140625 0.671875q-1.1875 7.421875 -8.6875 9.65625l-1.34375 -1.484375zm8.390625 -12.03125l-10.234375 0l0 -1.625l10.234375 0l0 1.625zm16.707031 1.78125q-1.421875 8.09375 -9.28125 11.578125l-1.34375 -1.40625q7.28125 -2.96875 8.765625 -10.25l-5.9375 0q-1.703125 2.828125 -3.5625 4.53125l-1.484375 -0.96875q3.859375 -3.484375 4.96875 -8.15625l1.703125 0.59375q0.453125 0.21875 -0.140625 0.4375q-0.296875 0.96875 -0.8125 1.9375l5.34375 0l0.65625 -0.375l1.34375 1.34375q0.515625 0.515625 -0.21875 0.734375zm11.5703125 1.859375l6.09375 0l0 1.625l-6.09375 0q0 5.203125 -4.671875 7.796875l-1.1875 -1.1875q4.234375 -2.375 4.15625 -6.609375l-7.421875 0l0 -1.625l7.421875 0l0 -2.828125q-2.078125 0.234375 -5.421875 0.375l-0.671875 -1.5625q7.203125 -0.140625 11.0625 -1.328125l0.8125 1.5625q0.234375 0.515625 -0.65625 0.140625q-1.5625 0.375 -3.421875 0.59375l0 3.046875zm13.886719 0.296875l6.078125 -1.484375l0.375 -0.21875l1.1875 1.1875q0.296875 0.296875 -0.21875 0.4375q-1.34375 2.15625 -2.828125 4.15625l-1.265625 -0.8125q1.1875 -1.5625 2.234375 -3.265625l-5.125 1.265625l2.53125 7.5l-1.484375 0.515625l-2.453125 -7.71875l-4.3125 1.1875l-0.515625 -1.484375l4.3125 -0.96875l-1.1875 -3.5625l1.546875 -0.296875q0.671875 0 0.234375 0.515625l0.890625 3.046875z" fill-rule="nonzero"/><path fill="#d9ead3" d="m367.5013 340.52756l350.58267 0l0 139.02362l-350.58267 0z" fill-rule="evenodd"/><path stroke="#000000" stroke-width="1.0" stroke-linejoin="round" stroke-linecap="butt" d="m367.5013 340.52756l350.58267 0l0 139.02362l-350.58267 0z" fill-rule="evenodd"/><path fill="#d9ead3" d="m367.5013 340.52756l350.58267 0l0 21.921265l-350.58267 0z" fill-rule="evenodd"/><path stroke="#000000" stroke-width="1.0" stroke-linejoin="round" stroke-linecap="butt" d="m367.5013 340.52756l350.58267 0l0 21.921265l-350.58267 0z" fill-rule="evenodd"/><path fill="#000000" d="m385.03256 350.9863l-7.421875 0l0 -1.640625l15.21875 0l0 1.640625l-6.078125 0l0 0.96875q0 4.671875 -3.34375 7.71875l-1.484375 -1.109375q3.109375 -2.453125 3.109375 -6.609375l0 -0.96875zm-4.75 -4.53125l0 -1.625l9.140625 0l0 1.625l-9.140625 0zm10.09375 -3.046875q0.96875 0.96875 2.078125 2.609375l-1.03125 0.734375q-1.046875 -1.484375 -2.078125 -2.671875l1.03125 -0.671875zm1.78125 -0.953125q0.96875 1.03125 2.078125 2.515625l-1.03125 0.75q-1.1875 -1.640625 -2.078125 -2.53125l1.03125 -0.734375zm3.4921875 9.859375l0 -1.625l16.546875 0l0 1.625l-16.546875 0zm24.648438 -7.71875q-0.296875 0.890625 -0.75 1.71875l4.96875 0l0.828125 -0.296875l0.953125 0.953125q0.296875 0.375 -0.296875 0.59375q-0.59375 2.96875 -1.78125 5.421875l1.78125 1.1875l-1.109375 1.640625l-1.625 -1.1875q-2.15625 3.109375 -6.171875 5.125l-1.703125 -1.265625q4.453125 -1.859375 6.390625 -4.90625q-1.859375 -1.1875 -3.640625 -2.15625l0.890625 -1.328125q2.296875 1.03125 3.78125 1.921875q1.109375 -2.296875 1.34375 -4.078125l-5.421875 0q-1.40625 2.53125 -3.484375 4.609375l-1.421875 -0.96875q3.796875 -3.9375 4.984375 -8.3125l1.78125 0.734375q0.59375 0.296875 -0.296875 0.59375zm15.65625 2.609375q3.40625 3.03125 8.6875 7.5625l-1.640625 1.484375q-3.859375 -3.5625 -7.265625 -6.671875q-0.671875 -0.59375 -0.890625 -0.59375q-0.375 0 -0.890625 0.59375q-2.15625 2.515625 -4.15625 4.671875l-1.421875 -1.640625q2.90625 -2.8125 5.5 -5.34375q0.4375 -0.4375 1.03125 -0.4375q0.59375 0 1.046875 0.375zm4.671875 -3.859375q1.265625 0.953125 2.453125 2.375l-0.890625 0.890625q-1.40625 -1.5625 -2.453125 -2.375l0.890625 -0.890625zm-1.78125 1.625q1.1875 0.96875 2.53125 2.375l-0.890625 0.890625q-1.484375 -1.484375 -2.53125 -2.296875l0.890625 -0.96875zm7.5703125 7.34375l0 -1.625l16.546875 0l0 1.625l-16.546875 0zm27.320312 -0.65625q3.1875 2.4375 6.296875 5.640625l-1.484375 1.265625q-3.109375 -3.28125 -6.0 -5.5q-2.90625 3.109375 -6.609375 5.5625l-1.40625 -1.265625q7.859375 -5.109375 10.09375 -10.234375l-8.09375 0.515625l-0.21875 -1.78125l8.609375 -0.375l0.890625 -0.21875l1.1875 1.1875q0.515625 0.515625 -0.296875 0.671875q-1.421875 2.453125 -2.96875 4.53125z" fill-rule="nonzero"/><path fill="#d9ead3" d="m380.00525 376.7454l325.3228 0l0 38.771667l-325.3228 0z" fill-rule="evenodd"/><path stroke="#000000" stroke-width="1.0" stroke-linejoin="round" stroke-linecap="butt" d="m380.00525 376.7454l325.3228 0l0 38.771667l-325.3228 0z" fill-rule="evenodd"/><path fill="#000000" d="m389.9115 396.55124q0 -3.328125 1.78125 -5.203125q1.78125 -1.890625 4.609375 -1.890625q1.84375 0 3.328125 0.890625q1.484375 0.875 2.265625 2.46875q0.78125 1.578125 0.78125 3.578125q0 2.03125 -0.828125 3.640625q-0.8125 1.59375 -2.3125 2.421875q-1.5 0.828125 -3.25 0.828125q-1.875 0 -3.359375 -0.90625q-1.484375 -0.921875 -2.25 -2.5q-0.765625 -1.578125 -0.765625 -3.328125zm1.8125 0.015625q0 2.421875 1.296875 3.8125q1.296875 1.390625 3.265625 1.390625q2.0 0 3.28125 -1.40625q1.28125 -1.40625 1.28125 -3.984375q0 -1.625 -0.546875 -2.84375q-0.546875 -1.21875 -1.609375 -1.875q-1.0625 -0.671875 -2.375 -0.671875q-1.890625 0 -3.25 1.296875q-1.34375 1.28125 -1.34375 4.28125zm11.792694 6.71875l3.875 -13.8125l1.3125 0l-3.859375 13.8125l-1.328125 0zm6.6520386 -0.234375l0 -13.359375l5.921875 0q1.78125 0 2.703125 0.359375q0.9375 0.359375 1.484375 1.28125q0.5625 0.90625 0.5625 2.015625q0 1.40625 -0.921875 2.390625q-0.921875 0.96875 -2.84375 1.234375q0.703125 0.34375 1.078125 0.671875q0.765625 0.703125 1.453125 1.765625l2.328125 3.640625l-2.21875 0l-1.765625 -2.78125q-0.78125 -1.203125 -1.28125 -1.828125q-0.5 -0.640625 -0.90625 -0.890625q-0.390625 -0.265625 -0.796875 -0.359375q-0.296875 -0.078125 -0.984375 -0.078125l-2.046875 0l0 5.9375l-1.765625 0zm1.765625 -7.453125l3.796875 0q1.21875 0 1.890625 -0.25q0.6875 -0.265625 1.046875 -0.8125q0.359375 -0.546875 0.359375 -1.1875q0 -0.953125 -0.6875 -1.5625q-0.6875 -0.609375 -2.1875 -0.609375l-4.21875 0l0 4.421875zm11.629211 7.453125l0 -13.359375l2.65625 0l3.15625 9.453125q0.4375 1.328125 0.640625 1.984375q0.234375 -0.734375 0.703125 -2.140625l3.203125 -9.296875l2.375 0l0 13.359375l-1.703125 0l0 -11.171875l-3.875 11.171875l-1.59375 0l-3.859375 -11.375l0 11.375l-1.703125 0zm21.697052 -1.1875q-0.921875 0.765625 -1.765625 1.09375q-0.828125 0.3125 -1.796875 0.3125q-1.59375 0 -2.453125 -0.78125q-0.859375 -0.78125 -0.859375 -1.984375q0 -0.71875 0.328125 -1.296875q0.328125 -0.59375 0.84375 -0.9375q0.53125 -0.359375 1.1875 -0.546875q0.46875 -0.125 1.453125 -0.25q1.984375 -0.234375 2.921875 -0.5625q0.015625 -0.34375 0.015625 -0.421875q0 -1.0 -0.46875 -1.421875q-0.625 -0.546875 -1.875 -0.546875q-1.15625 0 -1.703125 0.40625q-0.546875 0.40625 -0.8125 1.421875l-1.609375 -0.21875q0.21875 -1.015625 0.71875 -1.640625q0.5 -0.640625 1.453125 -0.984375q0.953125 -0.34375 2.1875 -0.34375q1.25 0 2.015625 0.296875q0.78125 0.28125 1.140625 0.734375q0.375 0.4375 0.515625 1.109375q0.078125 0.421875 0.078125 1.515625l0 2.1875q0 2.28125 0.109375 2.890625q0.109375 0.59375 0.40625 1.15625l-1.703125 0q-0.265625 -0.515625 -0.328125 -1.1875zm-0.140625 -3.671875q-0.890625 0.375 -2.671875 0.625q-1.015625 0.140625 -1.4375 0.328125q-0.421875 0.1875 -0.65625 0.53125q-0.21875 0.34375 -0.21875 0.78125q0 0.65625 0.5 1.09375q0.5 0.4375 1.453125 0.4375q0.9375 0 1.671875 -0.40625q0.75 -0.421875 1.09375 -1.140625q0.265625 -0.5625 0.265625 -1.640625l0 -0.609375zm4.203827 8.5625l0 -13.375l1.484375 0l0 1.25q0.53125 -0.734375 1.1875 -1.09375q0.671875 -0.375 1.625 -0.375q1.234375 0 2.171875 0.640625q0.953125 0.625 1.4375 1.796875q0.484375 1.15625 0.484375 2.546875q0 1.484375 -0.53125 2.671875q-0.53125 1.1875 -1.546875 1.828125q-1.015625 0.625 -2.140625 0.625q-0.8125 0 -1.46875 -0.34375q-0.65625 -0.34375 -1.0625 -0.875l0 4.703125l-1.640625 0zm1.484375 -8.484375q0 1.859375 0.75 2.765625q0.765625 0.890625 1.828125 0.890625q1.09375 0 1.875 -0.921875q0.78125 -0.9375 0.78125 -2.875q0 -1.84375 -0.765625 -2.765625q-0.75 -0.921875 -1.8125 -0.921875q-1.046875 0 -1.859375 0.984375q-0.796875 0.96875 -0.796875 2.84375zm8.891357 8.484375l0 -13.375l1.484375 0l0 1.25q0.53125 -0.734375 1.1875 -1.09375q0.671875 -0.375 1.625 -0.375q1.234375 0 2.171875 0.640625q0.953125 0.625 1.4375 1.796875q0.484375 1.15625 0.484375 2.546875q0 1.484375 -0.53125 2.671875q-0.53125 1.1875 -1.546875 1.828125q-1.015625 0.625 -2.140625 0.625q-0.8125 0 -1.46875 -0.34375q-0.65625 -0.34375 -1.0625 -0.875l0 4.703125l-1.640625 0zm1.484375 -8.484375q0 1.859375 0.75 2.765625q0.765625 0.890625 1.828125 0.890625q1.09375 0 1.875 -0.921875q0.78125 -0.9375 0.78125 -2.875q0 -1.84375 -0.765625 -2.765625q-0.75 -0.921875 -1.8125 -0.921875q-1.046875 0 -1.859375 0.984375q-0.796875 0.96875 -0.796875 2.84375zm15.516327 1.671875l1.6875 0.203125q-0.40625 1.484375 -1.484375 2.3125q-1.078125 0.8125 -2.765625 0.8125q-2.125 0 -3.375 -1.296875q-1.234375 -1.3125 -1.234375 -3.671875q0 -2.453125 1.25 -3.796875q1.265625 -1.34375 3.265625 -1.34375q1.9375 0 3.15625 1.328125q1.234375 1.3125 1.234375 3.703125q0 0.15625 0 0.4375l-7.21875 0q0.09375 1.59375 0.90625 2.453125q0.8125 0.84375 2.015625 0.84375q0.90625 0 1.546875 -0.46875q0.640625 -0.484375 1.015625 -1.515625zm-5.390625 -2.65625l5.40625 0q-0.109375 -1.21875 -0.625 -1.828125q-0.78125 -0.953125 -2.03125 -0.953125q-1.125 0 -1.90625 0.765625q-0.765625 0.75 -0.84375 2.015625zm9.125732 5.765625l0 -9.671875l1.46875 0l0 1.46875q0.5625 -1.03125 1.03125 -1.359375q0.484375 -0.328125 1.0625 -0.328125q0.828125 0 1.6875 0.53125l-0.5625 1.515625q-0.609375 -0.359375 -1.203125 -0.359375q-0.546875 0 -0.96875 0.328125q-0.421875 0.328125 -0.609375 0.890625q-0.28125 0.875 -0.28125 1.921875l0 5.0625l-1.625 0z" fill-rule="nonzero"/><path fill="#d9ead3" d="m380.13123 424.98425l325.3228 0l0 38.771667l-325.3228 0z" fill-rule="evenodd"/><path stroke="#000000" stroke-width="1.0" stroke-linejoin="round" stroke-linecap="butt" d="m380.13123 424.98425l325.3228 0l0 38.771667l-325.3228 0z" fill-rule="evenodd"/><path fill="#000000" d="m390.52185 451.29007l0 -13.359375l2.65625 0l3.15625 9.453125q0.4375 1.328125 0.640625 1.984375q0.234375 -0.734375 0.703125 -2.140625l3.203125 -9.296875l2.375 0l0 13.359375l-1.703125 0l0 -11.171875l-3.875 11.171875l-1.59375 0l-3.859375 -11.375l0 11.375l-1.703125 0zm15.306427 3.71875l-0.1875 -1.53125q0.546875 0.140625 0.9375 0.140625q0.546875 0 0.875 -0.1875q0.328125 -0.171875 0.546875 -0.5q0.15625 -0.25 0.5 -1.21875q0.046875 -0.140625 0.140625 -0.40625l-3.671875 -9.6875l1.765625 0l2.015625 5.59375q0.390625 1.078125 0.703125 2.25q0.28125 -1.125 0.671875 -2.203125l2.078125 -5.640625l1.640625 0l-3.6875 9.828125q-0.59375 1.609375 -0.921875 2.203125q-0.4375 0.8125 -1.0 1.1875q-0.5625 0.375 -1.34375 0.375q-0.484375 0 -1.0625 -0.203125zm8.75 -6.609375l1.625 -0.25q0.125 0.96875 0.75 1.5q0.625 0.515625 1.75 0.515625q1.125 0 1.671875 -0.453125q0.546875 -0.46875 0.546875 -1.09375q0 -0.546875 -0.484375 -0.875q-0.328125 -0.21875 -1.671875 -0.546875q-1.8125 -0.46875 -2.515625 -0.796875q-0.6875 -0.328125 -1.046875 -0.90625q-0.359375 -0.59375 -0.359375 -1.3125q0 -0.640625 0.296875 -1.1875q0.296875 -0.5625 0.8125 -0.921875q0.375 -0.28125 1.03125 -0.46875q0.671875 -0.203125 1.421875 -0.203125q1.140625 0 2.0 0.328125q0.859375 0.328125 1.265625 0.890625q0.421875 0.5625 0.578125 1.5l-1.609375 0.21875q-0.109375 -0.75 -0.640625 -1.171875q-0.515625 -0.421875 -1.46875 -0.421875q-1.140625 0 -1.625 0.375q-0.46875 0.375 -0.46875 0.875q0 0.3125 0.1875 0.578125q0.203125 0.265625 0.640625 0.4375q0.234375 0.09375 1.4375 0.421875q1.75 0.453125 2.4375 0.75q0.6875 0.296875 1.078125 0.859375q0.390625 0.5625 0.390625 1.40625q0 0.828125 -0.484375 1.546875q-0.46875 0.71875 -1.375 1.125q-0.90625 0.390625 -2.046875 0.390625q-1.875 0 -2.875 -0.78125q-0.984375 -0.78125 -1.25 -2.328125zm16.140625 6.59375l0 -4.734375q-0.375 0.546875 -1.0625 0.90625q-0.6875 0.34375 -1.46875 0.34375q-1.71875 0 -2.96875 -1.375q-1.234375 -1.375 -1.234375 -3.765625q0 -1.46875 0.5 -2.625q0.515625 -1.15625 1.46875 -1.75q0.96875 -0.59375 2.109375 -0.59375q1.796875 0 2.828125 1.515625l0 -1.296875l1.46875 0l0 13.375l-1.640625 0zm-5.046875 -8.5625q0 1.859375 0.78125 2.796875q0.78125 0.9375 1.875 0.9375q1.046875 0 1.796875 -0.890625q0.765625 -0.890625 0.765625 -2.703125q0 -1.9375 -0.796875 -2.90625q-0.796875 -0.96875 -1.875 -0.96875q-1.0625 0 -1.8125 0.90625q-0.734375 0.90625 -0.734375 2.828125zm9.219482 4.859375l0 -13.359375l1.640625 0l0 13.359375l-1.640625 0z" fill-rule="nonzero"/><path fill="#d9ead3" d="m365.11548 122.72179l355.55908 0l0 38.771652l-355.55908 0z" fill-rule="evenodd"/><path stroke="#000000" stroke-width="1.0" stroke-linejoin="round" stroke-linecap="butt" d="m365.11548 122.72179l355.55908 0l0 38.771652l-355.55908 0z" fill-rule="evenodd"/><path fill="#000000" d="m385.08423 144.3401l1.765625 0.453125q-0.5625 2.171875 -2.0 3.328125q-1.4375 1.140625 -3.53125 1.140625q-2.15625 0 -3.515625 -0.875q-1.34375 -0.890625 -2.0625 -2.546875q-0.703125 -1.671875 -0.703125 -3.59375q0 -2.078125 0.796875 -3.625q0.796875 -1.5625 2.265625 -2.359375q1.484375 -0.8125 3.25 -0.8125q2.0 0 3.359375 1.015625q1.375 1.015625 1.90625 2.875l-1.734375 0.40625q-0.46875 -1.453125 -1.359375 -2.109375q-0.875 -0.671875 -2.203125 -0.671875q-1.546875 0 -2.578125 0.734375q-1.03125 0.734375 -1.453125 1.984375q-0.421875 1.234375 -0.421875 2.5625q0 1.703125 0.5 2.96875q0.5 1.265625 1.546875 1.90625q1.046875 0.625 2.265625 0.625q1.484375 0 2.515625 -0.859375q1.03125 -0.859375 1.390625 -2.546875zm3.1292114 -0.15625q0 -2.6875 1.484375 -3.96875q1.25 -1.078125 3.046875 -1.078125q2.0 0 3.265625 1.3125q1.265625 1.296875 1.265625 3.609375q0 1.859375 -0.5625 2.9375q-0.5625 1.0625 -1.640625 1.65625q-1.0625 0.59375 -2.328125 0.59375q-2.03125 0 -3.28125 -1.296875q-1.25 -1.3125 -1.25 -3.765625zm1.6875 0q0 1.859375 0.796875 2.796875q0.8125 0.921875 2.046875 0.921875q1.21875 0 2.03125 -0.921875q0.8125 -0.9375 0.8125 -2.84375q0 -1.796875 -0.8125 -2.71875q-0.8125 -0.921875 -2.03125 -0.921875q-1.234375 0 -2.046875 0.921875q-0.796875 0.90625 -0.796875 2.765625zm9.297577 4.84375l0 -9.671875l1.46875 0l0 1.375q1.0625 -1.59375 3.078125 -1.59375q0.875 0 1.609375 0.3125q0.734375 0.3125 1.09375 0.828125q0.375 0.5 0.515625 1.203125q0.09375 0.453125 0.09375 1.59375l0 5.953125l-1.640625 0l0 -5.890625q0 -1.0 -0.203125 -1.484375q-0.1875 -0.5 -0.671875 -0.796875q-0.484375 -0.296875 -1.140625 -0.296875q-1.046875 0 -1.8125 0.671875q-0.75 0.65625 -0.75 2.515625l0 5.28125l-1.640625 0zm13.953857 -1.46875l0.234375 1.453125q-0.6875 0.140625 -1.234375 0.140625q-0.890625 0 -1.390625 -0.28125q-0.484375 -0.28125 -0.6875 -0.734375q-0.203125 -0.46875 -0.203125 -1.9375l0 -5.578125l-1.203125 0l0 -1.265625l1.203125 0l0 -2.390625l1.625 -0.984375l0 3.375l1.65625 0l0 1.265625l-1.65625 0l0 5.671875q0 0.6875 0.078125 0.890625q0.09375 0.203125 0.28125 0.328125q0.203125 0.109375 0.578125 0.109375q0.265625 0 0.71875 -0.0625zm1.5895386 1.46875l0 -9.671875l1.46875 0l0 1.46875q0.5625 -1.03125 1.03125 -1.359375q0.484375 -0.328125 1.0625 -0.328125q0.828125 0 1.6875 0.53125l-0.5625 1.515625q-0.609375 -0.359375 -1.203125 -0.359375q-0.546875 0 -0.96875 0.328125q-0.421875 0.328125 -0.609375 0.890625q-0.28125 0.875 -0.28125 1.921875l0 5.0625l-1.625 0zm5.618927 -4.84375q0 -2.6875 1.484375 -3.96875q1.25 -1.078125 3.046875 -1.078125q2.0 0 3.265625 1.3125q1.265625 1.296875 1.265625 3.609375q0 1.859375 -0.5625 2.9375q-0.5625 1.0625 -1.640625 1.65625q-1.0625 0.59375 -2.328125 0.59375q-2.03125 0 -3.28125 -1.296875q-1.25 -1.3125 -1.25 -3.765625zm1.6875 0q0 1.859375 0.796875 2.796875q0.8125 0.921875 2.046875 0.921875q1.21875 0 2.03125 -0.921875q0.8125 -0.9375 0.8125 -2.84375q0 -1.796875 -0.8125 -2.71875q-0.8125 -0.921875 -2.03125 -0.921875q-1.234375 0 -2.046875 0.921875q-0.796875 0.90625 -0.796875 2.765625zm9.250732 4.84375l0 -13.359375l1.640625 0l0 13.359375l-1.640625 0zm4.144806 0l0 -13.359375l1.640625 0l0 13.359375l-1.640625 0zm10.816711 -3.109375l1.6875 0.203125q-0.40625 1.484375 -1.484375 2.3125q-1.078125 0.8125 -2.765625 0.8125q-2.125 0 -3.375 -1.296875q-1.234375 -1.3125 -1.234375 -3.671875q0 -2.453125 1.25 -3.796875q1.265625 -1.34375 3.265625 -1.34375q1.9375 0 3.15625 1.328125q1.234375 1.3125 1.234375 3.703125q0 0.15625 0 0.4375l-7.21875 0q0.09375 1.59375 0.90625 2.453125q0.8125 0.84375 2.015625 0.84375q0.90625 0 1.546875 -0.46875q0.640625 -0.484375 1.015625 -1.515625zm-5.390625 -2.65625l5.40625 0q-0.109375 -1.21875 -0.625 -1.828125q-0.78125 -0.953125 -2.03125 -0.953125q-1.125 0 -1.90625 0.765625q-0.765625 0.75 -0.84375 2.015625zm9.125702 5.765625l0 -9.671875l1.46875 0l0 1.46875q0.5625 -1.03125 1.03125 -1.359375q0.484375 -0.328125 1.0625 -0.328125q0.828125 0 1.6875 0.53125l-0.5625 1.515625q-0.609375 -0.359375 -1.203125 -0.359375q-0.546875 0 -0.96875 0.328125q-0.421875 0.328125 -0.609375 0.890625q-0.28125 0.875 -0.28125 1.921875l0 5.0625l-1.625 0z" fill-rule="nonzero"/><path fill="#d9ead3" d="m364.03674 172.22835l355.55908 0l0 38.771652l-355.55908 0z" fill-rule="evenodd"/><path stroke="#000000" stroke-width="1.0" stroke-linejoin="round" stroke-linecap="butt" d="m364.03674 172.22835l355.55908 0l0 38.771652l-355.55908 0z" fill-rule="evenodd"/><path fill="#000000" d="m378.28674 198.53416l-5.171875 -13.359375l1.921875 0l3.46875 9.703125q0.421875 1.171875 0.703125 2.1875q0.3125 -1.09375 0.71875 -2.1875l3.609375 -9.703125l1.796875 0l-5.234375 13.359375l-1.8125 0zm8.090729 -11.46875l0 -1.890625l1.640625 0l0 1.890625l-1.640625 0zm0 11.46875l0 -9.671875l1.640625 0l0 9.671875l-1.640625 0zm10.769806 -3.109375l1.6875 0.203125q-0.40625 1.484375 -1.484375 2.3125q-1.078125 0.8125 -2.765625 0.8125q-2.125 0 -3.375 -1.296875q-1.234375 -1.3125 -1.234375 -3.671875q0 -2.453125 1.25 -3.796875q1.265625 -1.34375 3.265625 -1.34375q1.9375 0 3.15625 1.328125q1.234375 1.3125 1.234375 3.703125q0 0.15625 0 0.4375l-7.21875 0q0.09375 1.59375 0.90625 2.453125q0.8125 0.84375 2.015625 0.84375q0.90625 0 1.546875 -0.46875q0.640625 -0.484375 1.015625 -1.515625zm-5.390625 -2.65625l5.40625 0q-0.109375 -1.21875 -0.625 -1.828125q-0.78125 -0.953125 -2.03125 -0.953125q-1.125 0 -1.90625 0.765625q-0.765625 0.75 -0.84375 2.015625zm10.922607 5.765625l-2.96875 -9.671875l1.703125 0l1.53125 5.578125l0.578125 2.078125q0.046875 -0.15625 0.5 -2.0l1.546875 -5.65625l1.6875 0l1.4375 5.609375l0.484375 1.84375l0.5625 -1.859375l1.65625 -5.59375l1.59375 0l-3.03125 9.671875l-1.703125 0l-1.53125 -5.796875l-0.375 -1.640625l-1.953125 7.4375l-1.71875 0z" fill-rule="nonzero"/><path fill="#d9ead3" d="m364.03674 221.73491l355.55908 0l0 38.771652l-355.55908 0z" fill-rule="evenodd"/><path stroke="#000000" stroke-width="1.0" stroke-linejoin="round" stroke-linecap="butt" d="m364.03674 221.73491l355.55908 0l0 38.771652l-355.55908 0z" fill-rule="evenodd"/><path fill="#000000" d="m374.5055 248.04073l0 -13.359375l5.921875 0q1.78125 0 2.703125 0.359375q0.9375 0.359375 1.484375 1.28125q0.5625 0.90625 0.5625 2.015625q0 1.40625 -0.921875 2.390625q-0.921875 0.96875 -2.84375 1.234375q0.703125 0.34375 1.078125 0.671875q0.765625 0.703125 1.453125 1.765625l2.328125 3.640625l-2.21875 0l-1.765625 -2.78125q-0.78125 -1.203125 -1.28125 -1.828125q-0.5 -0.640625 -0.90625 -0.890625q-0.390625 -0.265625 -0.796875 -0.359375q-0.296875 -0.078125 -0.984375 -0.078125l-2.046875 0l0 5.9375l-1.765625 0zm1.765625 -7.453125l3.796875 0q1.21875 0 1.890625 -0.25q0.6875 -0.265625 1.046875 -0.8125q0.359375 -0.546875 0.359375 -1.1875q0 -0.953125 -0.6875 -1.5625q-0.6875 -0.609375 -2.1875 -0.609375l-4.21875 0l0 4.421875zm10.863586 2.609375q0 -2.6875 1.484375 -3.96875q1.25 -1.078125 3.046875 -1.078125q2.0 0 3.265625 1.3125q1.265625 1.296875 1.265625 3.609375q0 1.859375 -0.5625 2.9375q-0.5625 1.0625 -1.640625 1.65625q-1.0625 0.59375 -2.328125 0.59375q-2.03125 0 -3.28125 -1.296875q-1.25 -1.3125 -1.25 -3.765625zm1.6875 0q0 1.859375 0.796875 2.796875q0.8125 0.921875 2.046875 0.921875q1.21875 0 2.03125 -0.921875q0.8125 -0.9375 0.8125 -2.84375q0 -1.796875 -0.8125 -2.71875q-0.8125 -0.921875 -2.03125 -0.921875q-1.234375 0 -2.046875 0.921875q-0.796875 0.90625 -0.796875 2.765625zm15.625702 4.84375l0 -1.421875q-1.125 1.640625 -3.0625 1.640625q-0.859375 0 -1.609375 -0.328125q-0.734375 -0.328125 -1.09375 -0.828125q-0.359375 -0.5 -0.5 -1.21875q-0.109375 -0.46875 -0.109375 -1.53125l0 -5.984375l1.640625 0l0 5.359375q0 1.28125 0.109375 1.734375q0.15625 0.640625 0.65625 1.015625q0.5 0.375 1.234375 0.375q0.734375 0 1.375 -0.375q0.65625 -0.390625 0.921875 -1.03125q0.265625 -0.65625 0.265625 -1.890625l0 -5.1875l1.640625 0l0 9.671875l-1.46875 0zm7.6257324 -1.46875l0.234375 1.453125q-0.6875 0.140625 -1.234375 0.140625q-0.890625 0 -1.390625 -0.28125q-0.484375 -0.28125 -0.6875 -0.734375q-0.203125 -0.46875 -0.203125 -1.9375l0 -5.578125l-1.203125 0l0 -1.265625l1.203125 0l0 -2.390625l1.625 -0.984375l0 3.375l1.65625 0l0 1.265625l-1.65625 0l0 5.671875q0 0.6875 0.078125 0.890625q0.09375 0.203125 0.28125 0.328125q0.203125 0.109375 0.578125 0.109375q0.265625 0 0.71875 -0.0625zm8.230164 -1.640625l1.6875 0.203125q-0.40625 1.484375 -1.484375 2.3125q-1.078125 0.8125 -2.765625 0.8125q-2.125 0 -3.375 -1.296875q-1.234375 -1.3125 -1.234375 -3.671875q0 -2.453125 1.25 -3.796875q1.265625 -1.34375 3.265625 -1.34375q1.9375 0 3.15625 1.328125q1.234375 1.3125 1.234375 3.703125q0 0.15625 0 0.4375l-7.21875 0q0.09375 1.59375 0.90625 2.453125q0.8125 0.84375 2.015625 0.84375q0.90625 0 1.546875 -0.46875q0.640625 -0.484375 1.015625 -1.515625zm-5.390625 -2.65625l5.40625 0q-0.109375 -1.21875 -0.625 -1.828125q-0.78125 -0.953125 -2.03125 -0.953125q-1.125 0 -1.90625 0.765625q-0.765625 0.75 -0.84375 2.015625zm9.125732 5.765625l0 -9.671875l1.46875 0l0 1.46875q0.5625 -1.03125 1.03125 -1.359375q0.484375 -0.328125 1.0625 -0.328125q0.828125 0 1.6875 0.53125l-0.5625 1.515625q-0.609375 -0.359375 -1.203125 -0.359375q-0.546875 0 -0.96875 0.328125q-0.421875 0.328125 -0.609375 0.890625q-0.28125 0.875 -0.28125 1.921875l0 5.0625l-1.625 0z" fill-rule="nonzero"/></g></svg>